<svg width="47" height="19" viewBox="0 0 47 19" fill="none" xmlns="http://www.w3.org/2000/svg">
<path d="M7.84766 0.925781L4.97656 18H1.21484L3.39453 5.47266L0.183594 6.59766L0.722656 3.44531L7.4375 0.9375L7.84766 0.925781ZM20.9844 7.91016L20.5156 11.0156C20.4062 11.8281 20.2109 12.6641 19.9297 13.5234C19.6562 14.375 19.2852 15.1641 18.8164 15.8906C18.3477 16.6094 17.7656 17.1875 17.0703 17.625C16.375 18.0547 15.5312 18.2578 14.5391 18.2344C13.7891 18.2188 13.1602 18.0547 12.6523 17.7422C12.1445 17.4297 11.7344 17.0234 11.4219 16.5234C11.1094 16.0156 10.875 15.4492 10.7188 14.8242C10.5703 14.1914 10.4883 13.5508 10.4727 12.9023C10.457 12.2461 10.4844 11.6211 10.5547 11.0273L11.0234 7.91016C11.1484 7.09766 11.3438 6.26562 11.6094 5.41406C11.8828 4.55469 12.2539 3.76172 12.7227 3.03516C13.1992 2.30859 13.7852 1.73438 14.4805 1.3125C15.1836 0.882812 16.0312 0.679688 17.0234 0.703125C17.7656 0.71875 18.3906 0.886719 18.8984 1.20703C19.4141 1.51953 19.8242 1.92969 20.1289 2.4375C20.4414 2.9375 20.6719 3.5 20.8203 4.125C20.9688 4.74219 21.0508 5.37891 21.0664 6.03516C21.082 6.69141 21.0547 7.31641 20.9844 7.91016ZM16.7188 11.5195L17.3164 7.39453C17.332 7.26172 17.3633 7.05859 17.4102 6.78516C17.457 6.51172 17.4922 6.20312 17.5156 5.85938C17.5469 5.51562 17.5508 5.1875 17.5273 4.875C17.5039 4.55469 17.4297 4.28906 17.3047 4.07812C17.1875 3.85937 16.9961 3.74219 16.7305 3.72656C16.332 3.69531 16.0117 3.82031 15.7695 4.10156C15.5352 4.375 15.3555 4.72266 15.2305 5.14453C15.1055 5.56641 15.0156 5.98828 14.9609 6.41016C14.9141 6.83203 14.875 7.16016 14.8438 7.39453L14.2344 11.5195C14.2266 11.6523 14.1992 11.8594 14.1523 12.1406C14.1055 12.4141 14.0664 12.7227 14.0352 13.0664C14.0039 13.4102 14 13.7422 14.0234 14.0625C14.0469 14.375 14.1172 14.6406 14.2344 14.8594C14.3594 15.0703 14.5547 15.1875 14.8203 15.2109C15.2188 15.2422 15.5352 15.1172 15.7695 14.8359C16.0117 14.5547 16.1953 14.2031 16.3203 13.7812C16.4453 13.3594 16.5352 12.9375 16.5898 12.5156C16.6445 12.0938 16.6875 11.7617 16.7188 11.5195ZM32.8906 7.91016L32.4219 11.0156C32.3125 11.8281 32.1172 12.6641 31.8359 13.5234C31.5625 14.375 31.1914 15.1641 30.7227 15.8906C30.2539 16.6094 29.6719 17.1875 28.9766 17.625C28.2812 18.0547 27.4375 18.2578 26.4453 18.2344C25.6953 18.2188 25.0664 18.0547 24.5586 17.7422C24.0508 17.4297 23.6406 17.0234 23.3281 16.5234C23.0156 16.0156 22.7812 15.4492 22.625 14.8242C22.4766 14.1914 22.3945 13.5508 22.3789 12.9023C22.3633 12.2461 22.3906 11.6211 22.4609 11.0273L22.9297 7.91016C23.0547 7.09766 23.25 6.26562 23.5156 5.41406C23.7891 4.55469 24.1602 3.76172 24.6289 3.03516C25.1055 2.30859 25.6914 1.73438 26.3867 1.3125C27.0898 0.882812 27.9375 0.679688 28.9297 0.703125C29.6719 0.71875 30.2969 0.886719 30.8047 1.20703C31.3203 1.51953 31.7305 1.92969 32.0352 2.4375C32.3477 2.9375 32.5781 3.5 32.7266 4.125C32.875 4.74219 32.957 5.37891 32.9727 6.03516C32.9883 6.69141 32.9609 7.31641 32.8906 7.91016ZM28.625 11.5195L29.2227 7.39453C29.2383 7.26172 29.2695 7.05859 29.3164 6.78516C29.3633 6.51172 29.3984 6.20312 29.4219 5.85938C29.4531 5.51562 29.457 5.1875 29.4336 4.875C29.4102 4.55469 29.3359 4.28906 29.2109 4.07812C29.0938 3.85937 28.9023 3.74219 28.6367 3.72656C28.2383 3.69531 27.918 3.82031 27.6758 4.10156C27.4414 4.375 27.2617 4.72266 27.1367 5.14453C27.0117 5.56641 26.9219 5.98828 26.8672 6.41016C26.8203 6.83203 26.7812 7.16016 26.75 7.39453L26.1406 11.5195C26.1328 11.6523 26.1055 11.8594 26.0586 12.1406C26.0117 12.4141 25.9727 12.7227 25.9414 13.0664C25.9102 13.4102 25.9062 13.7422 25.9297 14.0625C25.9531 14.375 26.0234 14.6406 26.1406 14.8594C26.2656 15.0703 26.4609 15.1875 26.7266 15.2109C27.125 15.2422 27.4414 15.1172 27.6758 14.8359C27.918 14.5547 28.1016 14.2031 28.2266 13.7812C28.3516 13.3594 28.4414 12.9375 28.4961 12.5156C28.5508 12.0938 28.5938 11.7617 28.625 11.5195ZM35.4805 5.12109L35.5391 4.21875C35.5938 3.5625 35.7656 2.96484 36.0547 2.42578C36.3438 1.88672 36.7383 1.46094 37.2383 1.14844C37.7461 0.828125 38.3438 0.675781 39.0312 0.691406C39.7109 0.699219 40.2695 0.867188 40.707 1.19531C41.1523 1.52344 41.4805 1.95313 41.6914 2.48438C41.9023 3.00781 41.9883 3.58594 41.9492 4.21875L41.8672 5.12109C41.8125 5.76953 41.6406 6.36328 41.3516 6.90234C41.0625 7.44141 40.668 7.86719 40.168 8.17969C39.6758 8.49219 39.082 8.64062 38.3867 8.625C37.7227 8.61719 37.168 8.45312 36.7227 8.13281C36.2773 7.80469 35.9492 7.375 35.7383 6.84375C35.5352 6.3125 35.4492 5.73828 35.4805 5.12109ZM37.9531 4.21875L37.8594 5.16797C37.8516 5.31641 37.8477 5.49609 37.8477 5.70703C37.8555 5.91797 37.8984 6.10547 37.9766 6.26953C38.0547 6.42578 38.207 6.50391 38.4336 6.50391C38.668 6.51172 38.8516 6.4375 38.9844 6.28125C39.125 6.125 39.2305 5.9375 39.3008 5.71875C39.3789 5.5 39.4336 5.30469 39.4648 5.13281L39.5703 4.20703C39.5938 4.05859 39.6016 3.875 39.5938 3.65625C39.5938 3.4375 39.5508 3.24609 39.4648 3.08203C39.3789 2.91016 39.2227 2.82031 38.9961 2.8125C38.7617 2.80469 38.5742 2.88281 38.4336 3.04688C38.293 3.20312 38.1875 3.39453 38.1172 3.62109C38.0469 3.84766 37.9922 4.04688 37.9531 4.21875ZM40.2852 14.7188L40.3555 13.8164C40.4102 13.168 40.582 12.5781 40.8711 12.0469C41.168 11.5078 41.5664 11.082 42.0664 10.7695C42.5742 10.4492 43.1797 10.293 43.8828 10.3008C44.5547 10.3086 45.1094 10.4766 45.5469 10.8047C45.9922 11.125 46.3164 11.5508 46.5195 12.082C46.7305 12.6133 46.8164 13.1914 46.7773 13.8164L46.7188 14.7188C46.6562 15.3672 46.4805 15.9648 46.1914 16.5117C45.9102 17.0508 45.5156 17.4805 45.0078 17.8008C44.5078 18.1133 43.9102 18.2617 43.2148 18.2461C42.5508 18.2305 41.9922 18.0625 41.5391 17.7422C41.0938 17.4141 40.7656 16.9844 40.5547 16.4531C40.3438 15.9141 40.2539 15.3359 40.2852 14.7188ZM42.7812 13.8047L42.6758 14.7539C42.6602 14.8945 42.6602 15.0703 42.6758 15.2812C42.6992 15.4922 42.7539 15.6836 42.8398 15.8555C42.9258 16.0273 43.0664 16.1172 43.2617 16.125C43.5273 16.1328 43.7266 16.0625 43.8594 15.9141C44 15.7578 44.1016 15.5703 44.1641 15.3516C44.2266 15.125 44.2695 14.918 44.293 14.7305L44.4102 13.8047C44.418 13.6562 44.4219 13.4766 44.4219 13.2656C44.4297 13.0469 44.3906 12.8516 44.3047 12.6797C44.2266 12.5078 44.0742 12.418 43.8477 12.4102C43.6211 12.4023 43.4336 12.4805 43.2852 12.6445C43.1367 12.8008 43.0234 12.9922 42.9453 13.2188C42.875 13.4375 42.8203 13.6328 42.7812 13.8047ZM46.4258 3.51562L37.4258 16.6992L35.7148 15.6797L44.7148 2.49609L46.4258 3.51562Z" fill="white"/>
</svg>
