<svg width="29" height="36" viewBox="0 0 29 36" fill="none" xmlns="http://www.w3.org/2000/svg">
<g clip-path="url(#clip0_177_318)" filter="url(#filter0_i_177_318)">
<path d="M4.00318 13.9578L3.99806 13.9652L3.98525 13.98L3.94681 14.0292L3.81356 14.2038C3.70081 14.3531 3.55645 14.563 3.3805 14.8336C2.91827 15.5588 2.52217 16.3209 2.19662 17.1116C1.40225 19.0304 0.761621 21.7487 1.47656 24.8286C2.15306 27.756 3.45993 30.4718 5.72518 32.4644C8.01093 34.4718 11.15 35.6304 15.2602 35.6304C19.4038 35.6304 22.6505 34.2947 24.8517 32.0069C27.0349 29.7338 28.0727 26.6441 28.0727 23.3304C28.0727 21.2173 27.3399 19.1755 26.3559 17.269C25.4206 15.4535 24.2059 13.6676 23.0656 11.9874L22.8965 11.7414C21.6844 9.95787 20.5826 8.30967 19.8471 6.74019C19.1168 5.17317 18.8298 3.83739 19.0758 2.66151C19.1129 2.48313 19.1084 2.29907 19.0625 2.12257C19.0166 1.94608 18.9305 1.78156 18.8105 1.64085C18.6904 1.50015 18.5392 1.38677 18.368 1.30888C18.1968 1.231 18.0097 1.19054 17.8202 1.19043C16.7388 1.19043 14.9348 1.55451 13.2256 2.40321C11.5011 3.26175 9.69962 4.69839 8.9155 6.95175C7.91612 9.82995 9.06925 13.0772 10.0507 15.1263C10.4889 16.0365 10.1096 17.0451 9.38443 17.3945C9.22151 17.4734 9.04394 17.5206 8.86193 17.5334C8.67992 17.5462 8.49708 17.5243 8.32393 17.4689C8.15077 17.4136 7.99073 17.3259 7.85302 17.211C7.7153 17.096 7.60263 16.9561 7.5215 16.7991L6.15312 14.1694C6.05674 13.9844 5.91332 13.8257 5.73612 13.708C5.55891 13.5903 5.35365 13.5174 5.13932 13.4961C4.92499 13.4748 4.70852 13.5057 4.50993 13.5859C4.31134 13.6662 4.13705 13.7957 4.00318 13.9578Z" fill="#D27C2C"/>
</g>
<defs>
<filter id="filter0_i_177_318" x="0.46875" y="0.730469" width="28" height="39" filterUnits="userSpaceOnUse" color-interpolation-filters="sRGB">
<feFlood flood-opacity="0" result="BackgroundImageFix"/>
<feBlend mode="normal" in="SourceGraphic" in2="BackgroundImageFix" result="shape"/>
<feColorMatrix in="SourceAlpha" type="matrix" values="0 0 0 0 0 0 0 0 0 0 0 0 0 0 0 0 0 0 127 0" result="hardAlpha"/>
<feOffset dy="4"/>
<feGaussianBlur stdDeviation="2"/>
<feComposite in2="hardAlpha" operator="arithmetic" k2="-1" k3="1"/>
<feColorMatrix type="matrix" values="0 0 0 0 0.923106 0 0 0 0 0.238462 0 0 0 0 0.194761 0 0 0 0.5 0"/>
<feBlend mode="normal" in2="shape" result="effect1_innerShadow_177_318"/>
</filter>
<clipPath id="clip0_177_318">
<rect width="28" height="35" fill="white" transform="translate(0.46875 0.730469)"/>
</clipPath>
</defs>
</svg>
