<svg width="69" height="69" viewBox="0 0 69 69" fill="none" xmlns="http://www.w3.org/2000/svg">
<g filter="url(#filter0_d_241_345)">
<ellipse cx="34.5" cy="31" rx="34.5" ry="31" fill="#A7A7A7"/>
</g>
<g clip-path="url(#clip0_241_345)">
<path fill-rule="evenodd" clip-rule="evenodd" d="M44.625 44.625V25.5H38.4375C37.3932 25.5 36.3917 25.0852 35.6533 24.3467C34.9148 23.6083 34.5 22.6068 34.5 21.5625V15.375H24.375V44.625H44.625ZM44.3527 22.125L37.875 15.6472V21.5625C37.875 21.873 38.127 22.125 38.4375 22.125H44.3527ZM21 14.25C21 13.6533 21.2371 13.081 21.659 12.659C22.081 12.2371 22.6533 12 23.25 12H38.0685C38.6652 12.0001 39.2374 12.2373 39.6593 12.6592L47.3407 20.3407C47.7627 20.7626 47.9999 21.3348 48 21.9315V45.75C48 46.3467 47.7629 46.919 47.341 47.341C46.919 47.7629 46.3467 48 45.75 48H23.25C22.6533 48 22.081 47.7629 21.659 47.341C21.2371 46.919 21 46.3467 21 45.75V14.25ZM33.9375 37.875C33.4899 37.875 33.0607 38.0528 32.7443 38.3693C32.4278 38.6857 32.25 39.1149 32.25 39.5625C32.25 40.01 32.4278 40.4393 32.7443 40.7557C33.0607 41.0722 33.4899 41.25 33.9375 41.25H39.5625C40.0101 41.25 40.4393 41.0722 40.7557 40.7557C41.0722 40.4393 41.25 40.01 41.25 39.5625C41.25 39.1149 41.0722 38.6857 40.7557 38.3693C40.4393 38.0528 40.0101 37.875 39.5625 37.875H33.9375ZM30.63 25.995C30.3101 25.6969 29.887 25.5346 29.4498 25.5424C29.0126 25.5501 28.5955 25.7272 28.2864 26.0363C27.9772 26.3455 27.8001 26.7626 27.7924 27.1998C27.7846 27.637 27.9469 28.0601 28.245 28.38L30.99 31.125L28.245 33.87C28.0792 34.0245 27.9462 34.2108 27.854 34.4178C27.7618 34.6248 27.7122 34.8482 27.7082 35.0748C27.7042 35.3014 27.7459 35.5265 27.8307 35.7366C27.9156 35.9467 28.0419 36.1376 28.2022 36.2978C28.3624 36.4581 28.5533 36.5844 28.7634 36.6693C28.9735 36.7541 29.1986 36.7958 29.4252 36.7918C29.6518 36.7878 29.8752 36.7382 30.0822 36.646C30.2892 36.5538 30.4755 36.4208 30.63 36.255L34.5675 32.3175L35.76 31.125L34.5675 29.9325L30.63 25.995Z" fill="#777777"/>
</g>
<defs>
<filter id="filter0_d_241_345" x="0" y="0" width="69" height="69" filterUnits="userSpaceOnUse" color-interpolation-filters="sRGB">
<feFlood flood-opacity="0" result="BackgroundImageFix"/>
<feColorMatrix in="SourceAlpha" type="matrix" values="0 0 0 0 0 0 0 0 0 0 0 0 0 0 0 0 0 0 127 0" result="hardAlpha"/>
<feOffset dy="7"/>
<feComposite in2="hardAlpha" operator="out"/>
<feColorMatrix type="matrix" values="0 0 0 0 0.466667 0 0 0 0 0.466667 0 0 0 0 0.466667 0 0 0 1 0"/>
<feBlend mode="normal" in2="BackgroundImageFix" result="effect1_dropShadow_241_345"/>
<feBlend mode="normal" in="SourceGraphic" in2="effect1_dropShadow_241_345" result="shape"/>
</filter>
<clipPath id="clip0_241_345">
<rect width="27" height="36" fill="white" transform="translate(21 12)"/>
</clipPath>
</defs>
</svg>
