<svg width="69" height="69" viewBox="0 0 69 69" fill="none" xmlns="http://www.w3.org/2000/svg">
<g filter="url(#filter0_d_707_315)">
<ellipse cx="34.5" cy="31" rx="34.5" ry="31" fill="#3C4DFF"/>
</g>
<g clip-path="url(#clip0_707_315)">
<path fill-rule="evenodd" clip-rule="evenodd" d="M44.625 47.125V28H38.4375C37.3932 28 36.3917 27.5852 35.6533 26.8467C34.9148 26.1083 34.5 25.1068 34.5 24.0625V17.875H24.375V47.125H44.625ZM44.3527 24.625L37.875 18.1472V24.0625C37.875 24.373 38.127 24.625 38.4375 24.625H44.3527ZM21 16.75C21 16.1533 21.2371 15.581 21.659 15.159C22.081 14.7371 22.6533 14.5 23.25 14.5H38.0685C38.6652 14.5001 39.2374 14.7373 39.6593 15.1592L47.3407 22.8407C47.7627 23.2626 47.9999 23.8348 48 24.4315V48.25C48 48.8467 47.7629 49.419 47.341 49.841C46.919 50.2629 46.3467 50.5 45.75 50.5H23.25C22.6533 50.5 22.081 50.2629 21.659 49.841C21.2371 49.419 21 48.8467 21 48.25V16.75ZM33.9375 40.375C33.4899 40.375 33.0607 40.5528 32.7443 40.8693C32.4278 41.1857 32.25 41.6149 32.25 42.0625C32.25 42.51 32.4278 42.9393 32.7443 43.2557C33.0607 43.5722 33.4899 43.75 33.9375 43.75H39.5625C40.0101 43.75 40.4393 43.5722 40.7557 43.2557C41.0722 42.9393 41.25 42.51 41.25 42.0625C41.25 41.6149 41.0722 41.1857 40.7557 40.8693C40.4393 40.5528 40.0101 40.375 39.5625 40.375H33.9375ZM30.63 28.495C30.3101 28.1969 29.887 28.0346 29.4498 28.0424C29.0126 28.0501 28.5955 28.2272 28.2864 28.5363C27.9772 28.8455 27.8001 29.2626 27.7924 29.6998C27.7846 30.137 27.9469 30.5601 28.245 30.88L30.99 33.625L28.245 36.37C28.0792 36.5245 27.9462 36.7108 27.854 36.9178C27.7618 37.1248 27.7122 37.3482 27.7082 37.5748C27.7042 37.8014 27.7459 38.0265 27.8307 38.2366C27.9156 38.4467 28.0419 38.6376 28.2022 38.7978C28.3624 38.9581 28.5533 39.0844 28.7634 39.1693C28.9735 39.2541 29.1986 39.2958 29.4252 39.2918C29.6518 39.2878 29.8752 39.2382 30.0822 39.146C30.2892 39.0538 30.4755 38.9208 30.63 38.755L34.5675 34.8175L35.76 33.625L34.5675 32.4325L30.63 28.495Z" fill="white"/>
</g>
<defs>
<filter id="filter0_d_707_315" x="0" y="0" width="69" height="69" filterUnits="userSpaceOnUse" color-interpolation-filters="sRGB">
<feFlood flood-opacity="0" result="BackgroundImageFix"/>
<feColorMatrix in="SourceAlpha" type="matrix" values="0 0 0 0 0 0 0 0 0 0 0 0 0 0 0 0 0 0 127 0" result="hardAlpha"/>
<feOffset dy="7"/>
<feComposite in2="hardAlpha" operator="out"/>
<feColorMatrix type="matrix" values="0 0 0 0 0.0015072 0 0 0 0 0.0707561 0 0 0 0 0.795833 0 0 0 1 0"/>
<feBlend mode="normal" in2="BackgroundImageFix" result="effect1_dropShadow_707_315"/>
<feBlend mode="normal" in="SourceGraphic" in2="effect1_dropShadow_707_315" result="shape"/>
</filter>
<clipPath id="clip0_707_315">
<rect width="27" height="36" fill="white" transform="translate(21 14.5)"/>
</clipPath>
</defs>
</svg>
