<svg width="77" height="70" viewBox="0 0 77 70" fill="none" xmlns="http://www.w3.org/2000/svg">
<g filter="url(#filter0_d_241_341)">
<g filter="url(#filter1_d_241_341)">
<ellipse cx="38.5" cy="31" rx="34.5" ry="31" fill="#3C4DFF"/>
</g>
<g clip-path="url(#clip0_241_341)">
<path fill-rule="evenodd" clip-rule="evenodd" d="M48.625 44.625V25.5H42.4375C41.3932 25.5 40.3917 25.0852 39.6533 24.3467C38.9148 23.6083 38.5 22.6068 38.5 21.5625V15.375H28.375V44.625H48.625ZM48.3527 22.125L41.875 15.6472V21.5625C41.875 21.873 42.127 22.125 42.4375 22.125H48.3527ZM25 14.25C25 13.6533 25.2371 13.081 25.659 12.659C26.081 12.2371 26.6533 12 27.25 12H42.0685C42.6652 12.0001 43.2374 12.2373 43.6593 12.6592L51.3407 20.3407C51.7627 20.7626 51.9999 21.3348 52 21.9315V45.75C52 46.3467 51.7629 46.919 51.341 47.341C50.919 47.7629 50.3467 48 49.75 48H27.25C26.6533 48 26.081 47.7629 25.659 47.341C25.2371 46.919 25 46.3467 25 45.75V14.25ZM37.9375 37.875C37.4899 37.875 37.0607 38.0528 36.7443 38.3693C36.4278 38.6857 36.25 39.1149 36.25 39.5625C36.25 40.01 36.4278 40.4393 36.7443 40.7557C37.0607 41.0722 37.4899 41.25 37.9375 41.25H43.5625C44.0101 41.25 44.4393 41.0722 44.7557 40.7557C45.0722 40.4393 45.25 40.01 45.25 39.5625C45.25 39.1149 45.0722 38.6857 44.7557 38.3693C44.4393 38.0528 44.0101 37.875 43.5625 37.875H37.9375ZM34.63 25.995C34.3101 25.6969 33.887 25.5346 33.4498 25.5424C33.0126 25.5501 32.5955 25.7272 32.2864 26.0363C31.9772 26.3455 31.8001 26.7626 31.7924 27.1998C31.7846 27.637 31.9469 28.0601 32.245 28.38L34.99 31.125L32.245 33.87C32.0792 34.0245 31.9462 34.2108 31.854 34.4178C31.7618 34.6248 31.7122 34.8482 31.7082 35.0748C31.7042 35.3014 31.7459 35.5265 31.8307 35.7366C31.9156 35.9467 32.0419 36.1376 32.2022 36.2978C32.3624 36.4581 32.5533 36.5844 32.7634 36.6693C32.9735 36.7541 33.1986 36.7958 33.4252 36.7918C33.6518 36.7878 33.8752 36.7382 34.0822 36.646C34.2892 36.5538 34.4755 36.4208 34.63 36.255L38.5675 32.3175L39.76 31.125L38.5675 29.9325L34.63 25.995Z" fill="white"/>
</g>
</g>
<defs>
<filter id="filter0_d_241_341" x="0" y="0" width="77" height="70" filterUnits="userSpaceOnUse" color-interpolation-filters="sRGB">
<feFlood flood-opacity="0" result="BackgroundImageFix"/>
<feColorMatrix in="SourceAlpha" type="matrix" values="0 0 0 0 0 0 0 0 0 0 0 0 0 0 0 0 0 0 127 0" result="hardAlpha"/>
<feOffset dy="4"/>
<feGaussianBlur stdDeviation="2"/>
<feComposite in2="hardAlpha" operator="out"/>
<feColorMatrix type="matrix" values="0 0 0 0 0 0 0 0 0 0 0 0 0 0 0 0 0 0 0.25 0"/>
<feBlend mode="normal" in2="BackgroundImageFix" result="effect1_dropShadow_241_341"/>
<feBlend mode="normal" in="SourceGraphic" in2="effect1_dropShadow_241_341" result="shape"/>
</filter>
<filter id="filter1_d_241_341" x="4" y="0" width="69" height="69" filterUnits="userSpaceOnUse" color-interpolation-filters="sRGB">
<feFlood flood-opacity="0" result="BackgroundImageFix"/>
<feColorMatrix in="SourceAlpha" type="matrix" values="0 0 0 0 0 0 0 0 0 0 0 0 0 0 0 0 0 0 127 0" result="hardAlpha"/>
<feOffset dy="7"/>
<feComposite in2="hardAlpha" operator="out"/>
<feColorMatrix type="matrix" values="0 0 0 0 0.0015072 0 0 0 0 0.0707561 0 0 0 0 0.795833 0 0 0 1 0"/>
<feBlend mode="normal" in2="BackgroundImageFix" result="effect1_dropShadow_241_341"/>
<feBlend mode="normal" in="SourceGraphic" in2="effect1_dropShadow_241_341" result="shape"/>
</filter>
<clipPath id="clip0_241_341">
<rect width="27" height="36" fill="white" transform="translate(25 12)"/>
</clipPath>
</defs>
</svg>
