<svg width="23" height="24" viewBox="0 0 23 24" fill="none" xmlns="http://www.w3.org/2000/svg">
<path d="M21.7586 2.399L19.8323 0.927365C19.5766 0.733717 19.2632 0.661481 18.9604 0.726363C18.6576 0.791246 18.3897 0.988001 18.2152 1.27385L8.78575 16.9186L4.45146 12.0425C4.23248 11.7988 3.93692 11.6622 3.62892 11.6622C3.32093 11.6622 3.02536 11.7988 2.80639 12.0425L1.16131 13.8968C1.05313 14.0184 0.967313 14.1627 0.90876 14.3216C0.850207 14.4805 0.820068 14.6508 0.820068 14.8228C0.820068 14.9948 0.850207 15.1651 0.90876 15.324C0.967313 15.4829 1.05313 15.6272 1.16131 15.7487L7.82425 23.2482C8.19876 23.6671 8.78468 23.9906 9.31265 23.9906C9.84062 23.9906 10.3729 23.6164 10.7152 23.0562L22.0687 4.21591C22.2414 3.92857 22.3057 3.57593 22.2475 3.23532C22.1894 2.89472 22.0135 2.59396 21.7586 2.399Z" fill="#3C4DFF"/>
</svg>
