<svg width="77" height="70" viewBox="0 0 77 70" fill="none" xmlns="http://www.w3.org/2000/svg">
<g filter="url(#filter0_d_112_140)">
<g filter="url(#filter1_d_112_140)">
<ellipse cx="38.5" cy="31" rx="34.5" ry="31" fill="#A7A7A7"/>
</g>
<path d="M42.1125 34.6125L34.8875 27.3875ZM48.5201 45.2769C47.9557 45.8416 47.19 46.1589 46.3916 46.159C45.5931 46.1592 44.8273 45.8421 44.2627 45.2777C43.698 44.7132 43.3807 43.9475 43.3805 43.1491C43.3804 42.3506 43.6974 41.5849 44.2619 41.0202L41.6022 43.6814C41.0375 44.2461 40.2717 44.5633 39.4731 44.5633C38.6745 44.5633 37.9087 44.2461 37.344 43.6814C36.7793 43.1167 36.4621 42.3508 36.4621 41.5523C36.4621 40.7537 36.7793 39.9878 37.344 39.4232L46.9231 29.844C47.4878 29.2793 48.2537 28.9621 49.0522 28.9621C49.8508 28.9621 50.6167 29.2793 51.1814 29.844C51.746 30.4087 52.0633 31.1745 52.0633 31.9731C52.0633 32.7717 51.746 33.5376 51.1814 34.1022L48.5201 36.7619C49.0848 36.1975 49.8506 35.8804 50.649 35.8806C51.4475 35.8807 52.2131 36.198 52.7776 36.7627C53.3421 37.3274 53.6591 38.0932 53.659 38.8916C53.6589 39.69 53.3416 40.4557 52.7769 41.0202L48.5201 45.2769ZM52.7994 45.2995L50.6922 43.1922ZM26.3078 18.8078L24.2005 16.7005ZM30.0768 32.156C29.5121 32.7207 28.7463 33.0379 27.9477 33.0379C27.1491 33.0379 26.3833 32.7207 25.8186 32.156C25.2539 31.5913 24.9367 30.8255 24.9367 30.0269C24.9367 29.2283 25.2539 28.4624 25.8186 27.8978L28.4798 25.2381C28.2002 25.5176 27.8683 25.7393 27.503 25.8905C27.1377 26.0417 26.7462 26.1195 26.3509 26.1194C25.5525 26.1193 24.7868 25.802 24.2223 25.2373C23.9428 24.9577 23.7211 24.6258 23.5699 24.2605C23.4187 23.8952 23.3409 23.5038 23.3409 23.1084C23.3411 22.31 23.6584 21.5443 24.2231 20.9798L28.4798 16.7231C29.0443 16.1584 29.81 15.8411 30.6084 15.841C31.0037 15.8409 31.3952 15.9187 31.7605 16.0699C32.1258 16.2212 32.4577 16.4428 32.7373 16.7223C33.0169 17.0019 33.2387 17.3337 33.39 17.6989C33.5414 18.0641 33.6193 18.4556 33.6194 18.8509C33.6195 19.2463 33.5417 19.6378 33.3905 20.003C33.2392 20.3683 33.0175 20.7002 32.738 20.9798L35.3977 18.3186C35.9624 17.7539 36.7283 17.4367 37.5269 17.4367C38.3254 17.4367 39.0913 17.7539 39.656 18.3186C40.2206 18.8833 40.5379 19.6492 40.5379 20.4477C40.5379 21.2463 40.2206 22.0122 39.656 22.5769L30.0768 32.156Z" fill="#A7A7A7" fill-opacity="0.466667"/>
<path d="M42.1125 34.6125L34.8875 27.3875M52.7994 45.2995L50.6922 43.1922M26.3078 18.8078L24.2005 16.7005M48.5201 45.2769C47.9557 45.8416 47.19 46.1589 46.3916 46.159C45.5931 46.1592 44.8273 45.8421 44.2627 45.2777C43.698 44.7132 43.3807 43.9475 43.3805 43.1491C43.3804 42.3506 43.6974 41.5849 44.2619 41.0202L41.6022 43.6814C41.0375 44.2461 40.2717 44.5633 39.4731 44.5633C38.6745 44.5633 37.9087 44.2461 37.344 43.6814C36.7793 43.1167 36.4621 42.3508 36.4621 41.5523C36.4621 40.7537 36.7793 39.9878 37.344 39.4232L46.9231 29.844C47.4878 29.2793 48.2537 28.9621 49.0522 28.9621C49.8508 28.9621 50.6167 29.2793 51.1814 29.844C51.746 30.4087 52.0633 31.1745 52.0633 31.9731C52.0633 32.7717 51.746 33.5376 51.1814 34.1022L48.5201 36.7619C49.0848 36.1975 49.8506 35.8804 50.649 35.8806C51.4475 35.8807 52.2131 36.198 52.7776 36.7627C53.3421 37.3274 53.6591 38.0932 53.659 38.8916C53.6589 39.69 53.3416 40.4557 52.7769 41.0202L48.5201 45.2769ZM30.0768 32.156C29.5121 32.7207 28.7463 33.0379 27.9477 33.0379C27.1491 33.0379 26.3833 32.7207 25.8186 32.156C25.2539 31.5913 24.9367 30.8255 24.9367 30.0269C24.9367 29.2283 25.2539 28.4624 25.8186 27.8978L28.4798 25.2381C28.2002 25.5176 27.8683 25.7393 27.503 25.8905C27.1377 26.0417 26.7462 26.1195 26.3509 26.1194C25.5525 26.1193 24.7868 25.802 24.2223 25.2373C23.9428 24.9577 23.7211 24.6258 23.5699 24.2605C23.4187 23.8952 23.3409 23.5038 23.3409 23.1084C23.3411 22.31 23.6584 21.5443 24.2231 20.9798L28.4798 16.7231C29.0443 16.1584 29.81 15.8411 30.6084 15.841C31.0037 15.8409 31.3952 15.9187 31.7605 16.0699C32.1258 16.2212 32.4577 16.4428 32.7373 16.7223C33.0169 17.0019 33.2387 17.3337 33.39 17.6989C33.5414 18.0641 33.6193 18.4556 33.6194 18.8509C33.6195 19.2463 33.5417 19.6378 33.3905 20.003C33.2392 20.3683 33.0175 20.7002 32.738 20.9798L35.3977 18.3186C35.9624 17.7539 36.7283 17.4367 37.5269 17.4367C38.3254 17.4367 39.0913 17.7539 39.656 18.3186C40.2206 18.8833 40.5379 19.6492 40.5379 20.4477C40.5379 21.2463 40.2206 22.0122 39.656 22.5769L30.0768 32.156Z" stroke="#777777" stroke-width="2" stroke-linecap="round" stroke-linejoin="round"/>
</g>
<defs>
<filter id="filter0_d_112_140" x="0" y="0" width="77" height="70" filterUnits="userSpaceOnUse" color-interpolation-filters="sRGB">
<feFlood flood-opacity="0" result="BackgroundImageFix"/>
<feColorMatrix in="SourceAlpha" type="matrix" values="0 0 0 0 0 0 0 0 0 0 0 0 0 0 0 0 0 0 127 0" result="hardAlpha"/>
<feOffset dy="4"/>
<feGaussianBlur stdDeviation="2"/>
<feComposite in2="hardAlpha" operator="out"/>
<feColorMatrix type="matrix" values="0 0 0 0 0 0 0 0 0 0 0 0 0 0 0 0 0 0 0.25 0"/>
<feBlend mode="normal" in2="BackgroundImageFix" result="effect1_dropShadow_112_140"/>
<feBlend mode="normal" in="SourceGraphic" in2="effect1_dropShadow_112_140" result="shape"/>
</filter>
<filter id="filter1_d_112_140" x="4" y="0" width="69" height="69" filterUnits="userSpaceOnUse" color-interpolation-filters="sRGB">
<feFlood flood-opacity="0" result="BackgroundImageFix"/>
<feColorMatrix in="SourceAlpha" type="matrix" values="0 0 0 0 0 0 0 0 0 0 0 0 0 0 0 0 0 0 127 0" result="hardAlpha"/>
<feOffset dy="7"/>
<feComposite in2="hardAlpha" operator="out"/>
<feColorMatrix type="matrix" values="0 0 0 0 0.466667 0 0 0 0 0.466667 0 0 0 0 0.466667 0 0 0 1 0"/>
<feBlend mode="normal" in2="BackgroundImageFix" result="effect1_dropShadow_112_140"/>
<feBlend mode="normal" in="SourceGraphic" in2="effect1_dropShadow_112_140" result="shape"/>
</filter>
</defs>
</svg>
