<svg width="69" height="69" viewBox="0 0 69 69" fill="none" xmlns="http://www.w3.org/2000/svg">
<g filter="url(#filter0_d_241_337)">
<ellipse cx="34.5" cy="31" rx="34.5" ry="31" fill="#3C4DFF"/>
</g>
<path d="M38.1125 34.6125L30.8875 27.3875L38.1125 34.6125ZM44.5201 45.2769C43.9557 45.8416 43.19 46.1589 42.3916 46.159C41.5931 46.1591 40.8273 45.8421 40.2627 45.2776C39.698 44.7131 39.3807 43.9475 39.3805 43.149C39.3804 42.3506 39.6974 41.5848 40.2619 41.0201L37.6022 43.6814C37.0375 44.246 36.2717 44.5633 35.4731 44.5633C34.6745 44.5633 33.9087 44.246 33.344 43.6814C32.7793 43.1167 32.4621 42.3508 32.4621 41.5522C32.4621 40.7537 32.7793 39.9878 33.344 39.4231L42.9231 29.844C43.4878 29.2793 44.2537 28.9621 45.0522 28.9621C45.8508 28.9621 46.6167 29.2793 47.1814 29.844C47.746 30.4087 48.0633 31.1745 48.0633 31.9731C48.0633 32.7717 47.746 33.5375 47.1814 34.1022L44.5201 36.7619C45.0848 36.1974 45.8506 35.8804 46.649 35.8805C47.4475 35.8807 48.2131 36.198 48.7776 36.7627C49.3421 37.3273 49.6591 38.0931 49.659 38.8916C49.6589 39.69 49.3416 40.4557 48.7769 41.0201L44.5201 45.2769ZM48.7994 45.2994L46.6922 43.1922L48.7994 45.2994ZM22.3078 18.8078L20.2005 16.7005L22.3078 18.8078ZM26.0768 32.156C25.5122 32.7206 24.7463 33.0379 23.9477 33.0379C23.1491 33.0379 22.3833 32.7206 21.8186 32.156C21.2539 31.5913 20.9367 30.8254 20.9367 30.0269C20.9367 29.2283 21.2539 28.4624 21.8186 27.8977L24.4798 25.238C24.2002 25.5175 23.8683 25.7392 23.503 25.8905C23.1377 26.0417 22.7462 26.1195 22.3509 26.1194C21.5525 26.1193 20.7868 25.802 20.2223 25.2373C19.9428 24.9577 19.7211 24.6258 19.5699 24.2605C19.4187 23.8952 19.3409 23.5037 19.3409 23.1084C19.3411 22.31 19.6584 21.5443 20.2231 20.9798L24.4798 16.7231C25.0443 16.1584 25.81 15.8411 26.6084 15.8409C27.0037 15.8409 27.3952 15.9187 27.7605 16.0699C28.1258 16.2211 28.4577 16.4428 28.7373 16.7223C29.0169 17.0018 29.2387 17.3337 29.39 17.6989C29.5414 18.0641 29.6193 18.4556 29.6194 18.8509C29.6195 19.2462 29.5417 19.6377 29.3905 20.003C29.2392 20.3683 29.0175 20.7002 28.738 20.9798L31.3977 18.3186C31.9624 17.7539 32.7283 17.4367 33.5269 17.4367C34.3254 17.4367 35.0913 17.7539 35.656 18.3186C36.2206 18.8833 36.5379 19.6491 36.5379 20.4477C36.5379 21.2463 36.2206 22.0122 35.656 22.5768L26.0768 32.156Z" fill="white"/>
<path d="M38.1125 34.6125L30.8875 27.3875M48.7995 45.2995L46.6922 43.1922M22.3078 18.8078L20.2005 16.7005M44.5201 45.2769C43.9557 45.8416 43.19 46.1589 42.3916 46.159C41.5931 46.1591 40.8273 45.8421 40.2627 45.2776C39.698 44.7131 39.3807 43.9475 39.3805 43.149C39.3804 42.3506 39.6974 41.5848 40.2619 41.0201L37.6022 43.6814C37.0375 44.246 36.2717 44.5633 35.4731 44.5633C34.6745 44.5633 33.9087 44.246 33.344 43.6814C32.7793 43.1167 32.4621 42.3508 32.4621 41.5522C32.4621 40.7537 32.7793 39.9878 33.344 39.4231L42.9231 29.844C43.4878 29.2793 44.2537 28.9621 45.0522 28.9621C45.8508 28.9621 46.6167 29.2793 47.1814 29.844C47.746 30.4087 48.0633 31.1745 48.0633 31.9731C48.0633 32.7717 47.746 33.5375 47.1814 34.1022L44.5201 36.7619C45.0848 36.1974 45.8506 35.8804 46.649 35.8805C47.4475 35.8807 48.2131 36.198 48.7776 36.7627C49.3421 37.3273 49.6591 38.0931 49.659 38.8916C49.6589 39.69 49.3416 40.4557 48.7769 41.0201L44.5201 45.2769ZM26.0768 32.156C25.5121 32.7206 24.7463 33.0379 23.9477 33.0379C23.1491 33.0379 22.3833 32.7206 21.8186 32.156C21.2539 31.5913 20.9367 30.8254 20.9367 30.0269C20.9367 29.2283 21.2539 28.4624 21.8186 27.8977L24.4798 25.238C24.2002 25.5175 23.8683 25.7392 23.503 25.8905C23.1377 26.0417 22.7462 26.1195 22.3509 26.1194C21.5525 26.1193 20.7868 25.802 20.2223 25.2373C19.9428 24.9577 19.7211 24.6258 19.5699 24.2605C19.4187 23.8952 19.3409 23.5037 19.3409 23.1084C19.3411 22.31 19.6584 21.5443 20.2231 20.9798L24.4798 16.7231C25.0443 16.1584 25.81 15.8411 26.6084 15.8409C27.0037 15.8409 27.3952 15.9187 27.7605 16.0699C28.1258 16.2211 28.4577 16.4428 28.7373 16.7223C29.0169 17.0018 29.2387 17.3337 29.39 17.6989C29.5414 18.0641 29.6193 18.4556 29.6194 18.8509C29.6195 19.2462 29.5417 19.6377 29.3905 20.003C29.2392 20.3683 29.0175 20.7002 28.738 20.9798L31.3977 18.3186C31.9624 17.7539 32.7283 17.4367 33.5269 17.4367C34.3254 17.4367 35.0913 17.7539 35.656 18.3186C36.2206 18.8833 36.5379 19.6491 36.5379 20.4477C36.5379 21.2463 36.2206 22.0121 35.656 22.5768L26.0768 32.156Z" stroke="#F7F7F7" stroke-width="2" stroke-linecap="round" stroke-linejoin="round"/>
<defs>
<filter id="filter0_d_241_337" x="0" y="0" width="69" height="69" filterUnits="userSpaceOnUse" color-interpolation-filters="sRGB">
<feFlood flood-opacity="0" result="BackgroundImageFix"/>
<feColorMatrix in="SourceAlpha" type="matrix" values="0 0 0 0 0 0 0 0 0 0 0 0 0 0 0 0 0 0 127 0" result="hardAlpha"/>
<feOffset dy="7"/>
<feComposite in2="hardAlpha" operator="out"/>
<feColorMatrix type="matrix" values="0 0 0 0 0.0015072 0 0 0 0 0.0707561 0 0 0 0 0.795833 0 0 0 1 0"/>
<feBlend mode="normal" in2="BackgroundImageFix" result="effect1_dropShadow_241_337"/>
<feBlend mode="normal" in="SourceGraphic" in2="effect1_dropShadow_241_337" result="shape"/>
</filter>
</defs>
</svg>
