<svg width="69" height="72" viewBox="0 0 69 72" fill="none" xmlns="http://www.w3.org/2000/svg">
<g filter="url(#filter0_d_112_92)">
<ellipse cx="34.5" cy="32.5" rx="34.5" ry="32.5" fill="#3C4DFF"/>
</g>
<g clip-path="url(#clip0_112_92)">
<path d="M24.3204 43.2H49.8V19.4C49.8 18.4983 49.4417 17.6335 48.8041 16.9958C48.1665 16.3582 47.3017 16 46.4 16H24.3C22.2498 16 19.2 17.3583 19.2 21.1V44.9C19.2 48.6417 22.2498 50 24.3 50H49.8V46.6H24.3204C23.535 46.5796 22.6 46.2685 22.6 44.9C22.6 43.5315 23.535 43.2204 24.3204 43.2ZM27.7 22.8H43V26.2H27.7V22.8Z" fill="#F7F7F7"/>
</g>
<defs>
<filter id="filter0_d_112_92" x="0" y="0" width="69" height="72" filterUnits="userSpaceOnUse" color-interpolation-filters="sRGB">
<feFlood flood-opacity="0" result="BackgroundImageFix"/>
<feColorMatrix in="SourceAlpha" type="matrix" values="0 0 0 0 0 0 0 0 0 0 0 0 0 0 0 0 0 0 127 0" result="hardAlpha"/>
<feOffset dy="7"/>
<feComposite in2="hardAlpha" operator="out"/>
<feColorMatrix type="matrix" values="0 0 0 0 0.0015072 0 0 0 0 0.0707561 0 0 0 0 0.795833 0 0 0 1 0"/>
<feBlend mode="normal" in2="BackgroundImageFix" result="effect1_dropShadow_112_92"/>
<feBlend mode="normal" in="SourceGraphic" in2="effect1_dropShadow_112_92" result="shape"/>
</filter>
<clipPath id="clip0_112_92">
<rect width="30.6" height="34" fill="white" transform="translate(19.2 16)"/>
</clipPath>
</defs>
</svg>
