<svg width="18" height="23" viewBox="0 0 18 23" fill="none" xmlns="http://www.w3.org/2000/svg">
<g clip-path="url(#clip0_63_36)" filter="url(#filter0_i_63_36)">
<path d="M2.69107 8.67188L2.68781 8.67656L2.67968 8.68594L2.65526 8.71719L2.57063 8.82812C2.49901 8.92292 2.40732 9.05625 2.29556 9.22813C2.00197 9.68873 1.75038 10.1728 1.54361 10.675C1.03905 11.8938 0.632149 13.6203 1.08625 15.5766C1.51594 17.4359 2.34602 19.1609 3.78482 20.4266C5.23664 21.7016 7.23046 22.4375 9.84113 22.4375C12.473 22.4375 14.5351 21.5891 15.9333 20.1359C17.32 18.6922 17.9792 16.7297 17.9792 14.625C17.9792 13.2828 17.5137 11.9859 16.8887 10.775C16.2946 9.62187 15.5231 8.4875 14.7988 7.42031L14.6914 7.26406C13.9215 6.13125 13.2217 5.08438 12.7545 4.0875C12.2907 3.09219 12.1084 2.24375 12.2646 1.49688C12.2882 1.38358 12.2853 1.26666 12.2562 1.15456C12.2271 1.04246 12.1724 0.937963 12.0961 0.848593C12.0198 0.759223 11.9238 0.687208 11.8151 0.637737C11.7063 0.588266 11.5875 0.56257 11.4671 0.5625C10.7803 0.5625 9.63443 0.79375 8.54882 1.33281C7.45344 1.87813 6.30923 2.79062 5.81119 4.22188C5.17642 6.05 5.90884 8.1125 6.53221 9.41406C6.81054 9.99219 6.56965 10.6328 6.10904 10.8547C6.00556 10.9048 5.89277 10.9348 5.77716 10.9429C5.66156 10.9511 5.54542 10.9371 5.43544 10.902C5.32546 10.8669 5.22381 10.8112 5.13634 10.7382C5.04887 10.6651 4.9773 10.5762 4.92577 10.4766L4.05663 8.80625C3.99541 8.68874 3.90432 8.58794 3.79176 8.51319C3.67921 8.43844 3.54883 8.39215 3.4127 8.37859C3.27657 8.36504 3.13907 8.38467 3.01294 8.43566C2.8868 8.48665 2.7761 8.56892 2.69107 8.67188Z" fill="#D27C2C"/>
</g>
<defs>
<filter id="filter0_i_63_36" x="0" y="0" width="18" height="27" filterUnits="userSpaceOnUse" color-interpolation-filters="sRGB">
<feFlood flood-opacity="0" result="BackgroundImageFix"/>
<feBlend mode="normal" in="SourceGraphic" in2="BackgroundImageFix" result="shape"/>
<feColorMatrix in="SourceAlpha" type="matrix" values="0 0 0 0 0 0 0 0 0 0 0 0 0 0 0 0 0 0 127 0" result="hardAlpha"/>
<feOffset dy="4"/>
<feGaussianBlur stdDeviation="2"/>
<feComposite in2="hardAlpha" operator="arithmetic" k2="-1" k3="1"/>
<feColorMatrix type="matrix" values="0 0 0 0 0.923106 0 0 0 0 0.238462 0 0 0 0 0.194761 0 0 0 0.5 0"/>
<feBlend mode="normal" in2="shape" result="effect1_innerShadow_63_36"/>
</filter>
<clipPath id="clip0_63_36">
<rect width="18" height="23" fill="white"/>
</clipPath>
</defs>
</svg>
