<svg width="25" height="26" viewBox="0 0 25 26" fill="none" xmlns="http://www.w3.org/2000/svg">
<g clip-path="url(#clip0_8_15)">
<path d="M9.06251 17.7917L12.3958 25.3611C12.3958 25.3958 12.3611 25.3958 12.3611 25.3958L5.86806 17.7917H9.06251ZM6.00695 10.8125H0.034729C0.034729 11.0556 0.416673 11.3681 0.416673 11.3681L5.86806 17.7917L8.05556 15.4653L6.00695 10.8125Z" fill="#0096D1"/>
<path d="M24.8264 11.0903C24.6528 11.2639 24.375 11.2639 24.2014 11.0903C24.132 11.0208 24.0625 10.8819 24.0625 10.7778H18.9584L15.7639 7.30556L19.0972 3.79861L24.757 10.4306C24.757 10.4306 24.757 10.4653 24.7917 10.4653H24.8264C25 10.6736 25 10.9514 24.8264 11.0903ZM12.4653 10.8125L15.7292 7.34028L12.4653 3.79861L9.20142 7.34028L12.4653 10.8125Z" fill="#76DFFF"/>
<path d="M12.6042 25.3958C12.5694 25.4306 12.5347 25.3958 12.5694 25.3611L15.9028 17.7917H19.0972L12.6042 25.3958ZM16.9097 15.4653L19.0972 17.7917L24.7917 11.125C24.7917 11.125 24.9305 10.9167 24.9305 10.8125H18.9583L16.9097 15.4653Z" fill="#59CAFC"/>
<path d="M9.2014 7.34027L6.00696 10.8125H12.4653L9.2014 7.34027Z" fill="#27C7FF"/>
<path d="M15.7639 7.34027L12.4653 10.8125H18.9583L15.7639 7.34027Z" fill="#B0E9FF"/>
<path d="M9.2014 7.34029L6.00695 10.8125H0.034729C0.034729 10.8125 0.0694512 10.6042 0.20834 10.4653L5.69445 4.04168C5.72917 4.00695 5.7639 3.97223 5.79862 3.97223C5.86806 3.86807 5.97223 3.83334 6.11112 3.83334C6.35417 3.83334 6.52778 4.04168 6.52778 4.25001C6.52778 4.31945 6.49306 4.3889 6.45834 4.45834L9.2014 7.34029ZM12.4653 10.8125L16.9097 15.5L18.9583 10.8125H12.4653ZM6.00695 10.8125L8.05556 15.5L12.5 10.8125H6.00695ZM9.06251 17.7917L12.4306 25.4306C12.4653 25.4653 12.5 25.4653 12.5347 25.4306L15.9028 17.7917H9.06251ZM16.9097 15.4653L15.9028 17.7917H19.0972L16.9097 15.4653Z" fill="#00B1FF"/>
<path d="M15.7639 7.34028L12.4653 3.79861H19.0973L15.7639 7.34028ZM12.4653 3.79861H6.25003C6.11114 3.79861 5.83336 3.79861 5.93753 3.90278L9.20142 7.34028L12.4653 3.79861Z" fill="#59CAFC"/>
<path d="M8.05554 15.4653L5.86804 17.7917H9.06249L8.05554 15.4653Z" fill="#0074A8"/>
<path d="M8.05554 15.4653L9.06249 17.7917H15.9028L16.9097 15.4653L12.4653 10.8125L8.05554 15.4653Z" fill="#0096D1"/>
<path d="M18.2986 10.8819C19.2361 11.125 19.9653 11.8542 20.2083 12.7917C20.243 12.8958 20.3472 12.8958 20.3819 12.7917C20.625 11.8542 21.3541 11.125 22.2916 10.8819C22.3958 10.8472 22.3958 10.7431 22.2916 10.7083C21.3541 10.4653 20.625 9.73611 20.3819 8.79861C20.3472 8.69445 20.243 8.69445 20.2083 8.79861C19.9653 9.73611 19.2361 10.4653 18.2986 10.7083C18.1944 10.7431 18.1944 10.8472 18.2986 10.8819Z" fill="white"/>
<path d="M14.7917 1.75001C15.2778 1.8889 15.6597 2.27085 15.7986 2.75696C15.7986 2.79168 15.8681 2.79168 15.8681 2.75696C16.0069 2.27085 16.3889 1.8889 16.875 1.75001C16.9097 1.75001 16.9097 1.68057 16.875 1.68057C16.3889 1.54168 16.0069 1.15974 15.8681 0.673625C15.8681 0.638902 15.7986 0.638902 15.7986 0.673625C15.6597 1.15974 15.2778 1.54168 14.7917 1.68057C14.7569 1.68057 14.7569 1.75001 14.7917 1.75001Z" fill="#B0E9FF"/>
</g>
<defs>
<clipPath id="clip0_8_15">
<rect width="25" height="25" fill="white" transform="translate(0 0.5)"/>
</clipPath>
</defs>
</svg>
