<svg width="25" height="24" viewBox="0 0 25 24" fill="none" xmlns="http://www.w3.org/2000/svg">
<g clip-path="url(#clip0_165_785)">
<path d="M22.8286 20.9459C22.8286 22.4607 21.5891 23.7002 20.0743 23.7002H4.92568C3.41082 23.7002 2.17139 22.4607 2.17139 20.9459V9.24013C2.17139 7.72527 3.41082 6.48584 4.92568 6.48584H20.0743C21.5891 6.48584 22.8286 7.72527 22.8286 9.24013V20.9459Z" fill="#FDD888"/>
<path d="M24.8943 7.17446C24.8943 8.68932 23.6549 9.92875 22.14 9.92875H2.86C1.34514 9.92875 0.105713 8.68932 0.105713 7.17446C0.105713 5.6596 1.34514 4.42017 2.86 4.42017H22.14C23.6549 4.42017 24.8943 5.6596 24.8943 7.17446Z" fill="#FDD888"/>
<path d="M2.17139 9.92871H22.8286V11.3059H2.17139V9.92871Z" fill="#FCAB40"/>
<path d="M13.1886 1.66602H11.8114C10.6705 1.66602 9.74573 2.59077 9.74573 3.73173V23.7003H15.2543V3.73173C15.2543 2.59146 14.3296 1.66602 13.1886 1.66602Z" fill="#3C4DFF"/>
<path d="M11.1229 4.42011C11.8803 4.42011 11.9926 4.06481 11.3715 3.63032L6.74289 0.3899C6.1218 -0.0445891 5.30722 0.137883 4.93126 0.795469L3.5431 3.22475C3.16714 3.88234 3.47975 4.42011 4.23718 4.42011H11.1229ZM13.8772 4.42011C13.1198 4.42011 13.0075 4.06481 13.6286 3.63032L18.2579 0.3899C18.8783 -0.0445891 19.6935 0.137883 20.0695 0.795469L21.4577 3.22406C21.8329 3.88234 21.5203 4.42011 20.7629 4.42011H13.8772Z" fill="#3C4DFF"/>
</g>
<defs>
<clipPath id="clip0_165_785">
<rect width="25" height="24" fill="white"/>
</clipPath>
</defs>
</svg>
