<svg width="87" height="82" viewBox="0 0 87 82" fill="none" xmlns="http://www.w3.org/2000/svg">
<path d="M78.6172 71.2164C78.6172 76.3669 74.4031 80.581 69.2526 80.581H17.7474C12.5969 80.581 8.38281 76.3669 8.38281 71.2164V31.4168C8.38281 26.2663 12.5969 22.0522 17.7474 22.0522H69.2526C74.4031 22.0522 78.6172 26.2663 78.6172 31.4168V71.2164Z" fill="#FDD888"/>
<path d="M85.6406 24.3934C85.6406 29.5439 81.4266 33.758 76.276 33.758H10.724C5.57344 33.758 1.35938 29.5439 1.35938 24.3934C1.35938 19.2429 5.57344 15.0288 10.724 15.0288H76.276C81.4266 15.0288 85.6406 19.2429 85.6406 24.3934Z" fill="#FDD888"/>
<path d="M8.38281 33.7578H78.6172V38.4401H8.38281V33.7578Z" fill="#FCAB40"/>
<path d="M45.8411 5.66406H41.1588C37.2795 5.66406 34.1354 8.80822 34.1354 12.6875V80.5808H52.8645V12.6875C52.8645 8.81056 49.7204 5.66406 45.8411 5.66406Z" fill="#3C4DFF"/>
<path d="M38.8176 15.0289C41.3929 15.0289 41.7745 13.8208 39.6628 12.3436L23.9256 1.32615C21.8139 -0.151115 19.0443 0.469289 17.7661 2.70508L13.0463 10.9646C11.768 13.2004 12.8309 15.0289 15.4062 15.0289H38.8176ZM48.1822 15.0289C45.6069 15.0289 45.2253 13.8208 47.337 12.3436L63.0765 1.32615C65.1859 -0.151115 67.9578 0.469289 69.2361 2.70508L73.9558 10.9623C75.2318 13.2004 74.1689 15.0289 71.5936 15.0289H48.1822Z" fill="#3C4DFF"/>
</svg>
