<svg width="14" height="14" viewBox="0 0 14 14" fill="none" xmlns="http://www.w3.org/2000/svg">
<rect width="14" height="14" fill="#1E1E1E"/>
<g clip-path="url(#clip0_0_1)">
<rect width="1440" height="1024" transform="translate(-589 -996)" fill="white"/>
<g clip-path="url(#clip1_0_1)">
<path fill-rule="evenodd" clip-rule="evenodd" d="M2 0C1.46957 0 0.960859 0.210714 0.585786 0.585786C0.210714 0.960859 0 1.46957 0 2V12C0 12.5304 0.210714 13.0391 0.585786 13.4142C0.960859 13.7893 1.46957 14 2 14H12C12.5304 14 13.0391 13.7893 13.4142 13.4142C13.7893 13.0391 14 12.5304 14 12V2C14 1.46957 13.7893 0.960859 13.4142 0.585786C13.0391 0.210714 12.5304 0 12 0H2ZM3.102 4.297C3.41893 4.297 3.72289 4.1711 3.94699 3.94699C4.1711 3.72289 4.297 3.41893 4.297 3.102C4.297 2.78507 4.1711 2.48111 3.94699 2.25701C3.72289 2.0329 3.41893 1.907 3.102 1.907C2.78507 1.907 2.48111 2.0329 2.25701 2.25701C2.0329 2.48111 1.907 2.78507 1.907 3.102C1.907 3.41893 2.0329 3.72289 2.25701 3.94699C2.48111 4.1711 2.78507 4.297 3.102 4.297ZM4.102 11.813V5.234H2.102V11.813H4.102ZM5.43 5.234H7.43V6.115C7.725 5.653 8.373 5.031 9.578 5.031C11.016 5.031 11.797 5.984 11.797 7.797C11.797 7.884 11.805 8.281 11.805 8.281V11.812H9.805V8.282C9.805 7.797 9.703 6.844 8.625 6.844C7.546 6.844 7.455 8.042 7.43 8.826V11.812H5.43V5.234Z" fill="#777777"/>
</g>
</g>
<defs>
<clipPath id="clip0_0_1">
<rect width="1440" height="1024" fill="white" transform="translate(-589 -996)"/>
</clipPath>
<clipPath id="clip1_0_1">
<rect width="14" height="14" fill="white"/>
</clipPath>
</defs>
</svg>
