<svg width="188" height="207" viewBox="0 0 188 207" fill="none" xmlns="http://www.w3.org/2000/svg">
<g clip-path="url(#clip0_149_296)">
<path d="M43.2668 200.865V173.09C41.7525 158.011 31.7429 146.582 22.5004 132.812M117.508 200.865V184.2C165.234 184.2 159.932 128.647 159.932 128.647C159.932 128.647 181.144 128.647 181.144 106.426L159.932 73.0948C159.932 28.6523 123.874 6.83002 85.6902 6.43099C64.2981 6.20792 47.2198 11.5891 34.457 21.0076" stroke="white" stroke-width="11" stroke-linecap="round" stroke-linejoin="round"/>
<path d="M103.367 55.0344L122.811 79.3397L103.367 103.645" stroke="white" stroke-width="11" stroke-linecap="round" stroke-linejoin="round"/>
<path d="M25.5904 55.0344L6.14636 79.3397L25.5904 103.645" stroke="white" stroke-width="11" stroke-linecap="round" stroke-linejoin="round"/>
<path d="M74.2009 45.3129L54.7568 113.367" stroke="white" stroke-width="11" stroke-linecap="round" stroke-linejoin="round"/>
</g>
<defs>
<clipPath id="clip0_149_296">
<rect width="187" height="206" fill="white" transform="translate(0.5 0.5)"/>
</clipPath>
</defs>
</svg>
