<svg width="118" height="119" viewBox="0 0 118 119" fill="none" xmlns="http://www.w3.org/2000/svg">
<path d="M117.75 109.701C117.75 114.721 113.49 118.828 108.283 118.828H56.2167C51.01 118.828 46.75 114.721 46.75 109.701V71.4801C46.75 70.5055 51.01 70.9115 56.2167 70.9115L108.283 70.9115C113.49 70.9115 117.75 70.9115 117.75 70.9115V109.701Z" fill="#FDD888"/>
<path d="M46.75 70.8276H117.75V75.585H46.75V70.8276Z" fill="#FCAB40"/>
<path d="M84.6509 71.0737H79.8492C75.8709 71.0737 72.6465 73.0779 72.6465 75.5507V118.828H91.8536V75.5507C91.8536 73.0794 88.6292 71.0737 84.6509 71.0737Z" fill="#3C4DFF"/>
<path d="M67.8948 44.1364C72.1139 47.0906 73.1487 52.9596 70.1945 57.1787L32.5954 110.876C29.6412 115.095 23.7722 116.13 19.5531 113.176C15.334 110.221 14.2992 104.352 17.2534 100.133L54.8525 46.4361C57.8067 42.217 63.6758 41.1822 67.8948 44.1364Z" fill="#FDD888"/>
<path d="M35.7536 70.1759L33.0291 74.0669C30.7719 77.2905 29.6643 80.4088 30.5551 81.0325L46.1446 91.9484L57.0425 76.3845L41.453 65.4687C40.5628 64.8453 38.0108 66.9522 35.7536 70.1759Z" fill="#3C4DFF"/>
<path d="M33.3672 77.1201C34.8443 75.0106 34.0736 74.0051 31.6523 74.8876L13.6009 81.4594C11.1796 82.3419 10.0992 84.9664 11.1975 87.2959L15.2562 95.8996C16.3545 98.2291 18.4619 98.4072 19.939 96.2977L33.3672 77.1201ZM38.7385 69.4491C37.2614 71.5587 36.053 71.1784 36.0541 68.6012L36.057 49.3888C36.0567 46.8136 38.1548 44.8989 40.7195 45.1342L50.1905 46.0041C52.7557 46.2427 53.6439 48.1621 52.1668 50.2716L38.7385 69.4491Z" fill="#3C4DFF"/>
<g clip-path="url(#clip0_227_741)">
<path d="M74.4825 39.4252L82.0825 56.6835C82.0825 56.7627 82.0033 56.7627 82.0033 56.7627L67.1992 39.4252H74.4825ZM67.5158 23.5127H53.8992C53.8992 24.0669 54.77 24.7794 54.77 24.7794L67.1992 39.4252L72.1867 34.121L67.5158 23.5127Z" fill="#0096D1"/>
<path d="M110.424 24.146C110.028 24.5418 109.395 24.5418 108.999 24.146C108.841 23.9877 108.683 23.671 108.683 23.4335H97.0451L89.7618 15.5168L97.3618 7.521L110.266 22.6418C110.266 22.6418 110.266 22.721 110.345 22.721H110.424C110.82 23.196 110.82 23.8293 110.424 24.146ZM82.241 23.5127L89.6826 15.596L82.241 7.521L74.7993 15.596L82.241 23.5127Z" fill="#76DFFF"/>
<path d="M82.5575 56.7627C82.4783 56.8419 82.3992 56.7627 82.4783 56.6835L90.0783 39.4252H97.3617L82.5575 56.7627ZM92.3742 34.121L97.3617 39.4252L110.345 24.2252C110.345 24.2252 110.662 23.7502 110.662 23.5127H97.045L92.3742 34.121Z" fill="#59CAFC"/>
<path d="M74.7992 15.5957L67.5159 23.5124H82.2409L74.7992 15.5957Z" fill="#27C7FF"/>
<path d="M89.7618 15.5957L82.241 23.5124H97.0451L89.7618 15.5957Z" fill="#B0E9FF"/>
<path d="M74.7992 15.5959L67.5158 23.5126H53.8992C53.8992 23.5126 53.9783 23.0376 54.295 22.7209L66.8033 8.0751C66.8825 7.99593 66.9617 7.91676 67.0408 7.91676C67.1992 7.67926 67.4367 7.6001 67.7533 7.6001C68.3075 7.6001 68.7033 8.0751 68.7033 8.5501C68.7033 8.70843 68.6242 8.86676 68.545 9.0251L74.7992 15.5959ZM82.2408 23.5126L92.3742 34.2001L97.045 23.5126H82.2408ZM67.5158 23.5126L72.1867 34.2001L82.32 23.5126H67.5158ZM74.4825 39.4251L82.1617 56.8418C82.2408 56.9209 82.32 56.9209 82.3992 56.8418L90.0783 39.4251H74.4825ZM92.3742 34.1209L90.0783 39.4251H97.3617L92.3742 34.1209Z" fill="#00B1FF"/>
<path d="M89.7617 15.596L82.2409 7.521H97.3617L89.7617 15.596ZM82.2409 7.521H68.07C67.7534 7.521 67.12 7.521 67.3575 7.7585L74.7992 15.596L82.2409 7.521Z" fill="#59CAFC"/>
<path d="M72.1867 34.1206L67.1992 39.4248H74.4826L72.1867 34.1206Z" fill="#0074A8"/>
<path d="M72.1868 34.121L74.4826 39.4252H90.0784L92.3743 34.121L82.2409 23.5127L72.1868 34.121Z" fill="#0096D1"/>
<path d="M95.5409 23.6708C97.6784 24.225 99.3409 25.8875 99.8951 28.025C99.9743 28.2625 100.212 28.2625 100.291 28.025C100.845 25.8875 102.508 24.225 104.645 23.6708C104.883 23.5916 104.883 23.3541 104.645 23.275C102.508 22.7208 100.845 21.0583 100.291 18.9208C100.212 18.6833 99.9743 18.6833 99.8951 18.9208C99.3409 21.0583 97.6784 22.7208 95.5409 23.275C95.3034 23.3541 95.3034 23.5916 95.5409 23.6708Z" fill="white"/>
<path d="M87.545 2.84997C88.6533 3.16663 89.5241 4.03747 89.8408 5.1458C89.8408 5.22497 89.9991 5.22497 89.9991 5.1458C90.3158 4.03747 91.1866 3.16663 92.295 2.84997C92.3741 2.84997 92.3741 2.69163 92.295 2.69163C91.1866 2.37497 90.3158 1.50413 89.9991 0.395801C89.9991 0.316634 89.8408 0.316634 89.8408 0.395801C89.5241 1.50413 88.6533 2.37497 87.545 2.69163C87.4658 2.69163 87.4658 2.84997 87.545 2.84997Z" fill="#B0E9FF"/>
</g>
<defs>
<clipPath id="clip0_227_741">
<rect width="58" height="57" fill="white" transform="translate(53)"/>
</clipPath>
</defs>
</svg>
