<svg width="77" height="70" viewBox="0 0 77 70" fill="none" xmlns="http://www.w3.org/2000/svg">
<g filter="url(#filter0_d_112_136)">
<g filter="url(#filter1_d_112_136)">
<ellipse cx="38.5" cy="31" rx="34.5" ry="31" fill="#A7A7A7"/>
</g>
<g clip-path="url(#clip0_112_136)">
<path d="M54.6601 20.2084L49.2916 14.8399C49.167 14.7152 49.019 14.6162 48.856 14.5486C48.6931 14.4811 48.5185 14.4463 48.3421 14.4463C48.1657 14.4463 47.9911 14.4811 47.8282 14.5486C47.6652 14.6162 47.5172 14.7152 47.3926 14.8399L31.2873 30.9452C31.1627 31.0699 31.0639 31.218 30.9966 31.3809C30.9292 31.5438 30.8946 31.7184 30.8947 31.8947V37.2632C30.8947 37.6191 31.0361 37.9605 31.2878 38.2122C31.5395 38.4639 31.8809 38.6053 32.2368 38.6053H37.6053C37.7816 38.6054 37.9562 38.5708 38.1191 38.5034C38.282 38.4361 38.4301 38.3373 38.5548 38.2127L54.6601 22.1074C54.7848 21.9828 54.8838 21.8348 54.9514 21.6718C55.0189 21.5089 55.0537 21.3343 55.0537 21.1579C55.0537 20.9815 55.0189 20.8069 54.9514 20.644C54.8838 20.481 54.7848 20.333 54.6601 20.2084ZM37.05 35.9211H33.5789V32.45L44.3158 21.7132L47.7868 25.1842L37.05 35.9211ZM49.6842 23.2868L46.2132 19.8158L48.3421 17.6869L51.8131 21.1579L49.6842 23.2868ZM53.7105 31.8947V45.3158C53.7105 46.0277 53.4277 46.7104 52.9243 47.2138C52.4209 47.7172 51.7382 48 51.0263 48H24.1842C23.4723 48 22.7896 47.7172 22.2862 47.2138C21.7828 46.7104 21.5 46.0277 21.5 45.3158V18.4737C21.5 17.7618 21.7828 17.0791 22.2862 16.5757C22.7896 16.0723 23.4723 15.7895 24.1842 15.7895H37.6053C37.9612 15.7895 38.3026 15.9309 38.5543 16.1826C38.806 16.4343 38.9474 16.7756 38.9474 17.1316C38.9474 17.4875 38.806 17.8289 38.5543 18.0806C38.3026 18.3323 37.9612 18.4737 37.6053 18.4737H24.1842V45.3158H51.0263V31.8947C51.0263 31.5388 51.1677 31.1974 51.4194 30.9457C51.6711 30.694 52.0125 30.5526 52.3684 30.5526C52.7244 30.5526 53.0657 30.694 53.3174 30.9457C53.5691 31.1974 53.7105 31.5388 53.7105 31.8947Z" fill="#777777"/>
</g>
</g>
<defs>
<filter id="filter0_d_112_136" x="0" y="0" width="77" height="70" filterUnits="userSpaceOnUse" color-interpolation-filters="sRGB">
<feFlood flood-opacity="0" result="BackgroundImageFix"/>
<feColorMatrix in="SourceAlpha" type="matrix" values="0 0 0 0 0 0 0 0 0 0 0 0 0 0 0 0 0 0 127 0" result="hardAlpha"/>
<feOffset dy="4"/>
<feGaussianBlur stdDeviation="2"/>
<feComposite in2="hardAlpha" operator="out"/>
<feColorMatrix type="matrix" values="0 0 0 0 0 0 0 0 0 0 0 0 0 0 0 0 0 0 0.25 0"/>
<feBlend mode="normal" in2="BackgroundImageFix" result="effect1_dropShadow_112_136"/>
<feBlend mode="normal" in="SourceGraphic" in2="effect1_dropShadow_112_136" result="shape"/>
</filter>
<filter id="filter1_d_112_136" x="4" y="0" width="69" height="69" filterUnits="userSpaceOnUse" color-interpolation-filters="sRGB">
<feFlood flood-opacity="0" result="BackgroundImageFix"/>
<feColorMatrix in="SourceAlpha" type="matrix" values="0 0 0 0 0 0 0 0 0 0 0 0 0 0 0 0 0 0 127 0" result="hardAlpha"/>
<feOffset dy="7"/>
<feComposite in2="hardAlpha" operator="out"/>
<feColorMatrix type="matrix" values="0 0 0 0 0.466667 0 0 0 0 0.466667 0 0 0 0 0.466667 0 0 0 1 0"/>
<feBlend mode="normal" in2="BackgroundImageFix" result="effect1_dropShadow_112_136"/>
<feBlend mode="normal" in="SourceGraphic" in2="effect1_dropShadow_112_136" result="shape"/>
</filter>
<clipPath id="clip0_112_136">
<rect width="34" height="34" fill="white" transform="translate(21.5 14)"/>
</clipPath>
</defs>
</svg>
