<svg width="69" height="72" viewBox="0 0 69 72" fill="none" xmlns="http://www.w3.org/2000/svg">
<g filter="url(#filter0_d_707_299)">
<ellipse cx="34.5" cy="32.5" rx="34.5" ry="32.5" fill="#A7A7A7"/>
</g>
<g clip-path="url(#clip0_707_299)">
<path d="M50.6601 23.2083L45.2916 17.8399C45.167 17.7151 45.019 17.6161 44.856 17.5486C44.6931 17.4811 44.5185 17.4463 44.3421 17.4463C44.1657 17.4463 43.9911 17.4811 43.8282 17.5486C43.6652 17.6161 43.5172 17.7151 43.3926 17.8399L27.2873 33.9452C27.1627 34.0699 27.0639 34.218 26.9966 34.3809C26.9292 34.5438 26.8946 34.7184 26.8947 34.8947V40.2631C26.8947 40.6191 27.0361 40.9604 27.2878 41.2121C27.5395 41.4638 27.8809 41.6052 28.2368 41.6052H33.6053C33.7816 41.6054 33.9562 41.5708 34.1191 41.5034C34.282 41.4361 34.4301 41.3373 34.5548 41.2127L50.6601 25.1074C50.7848 24.9828 50.8838 24.8347 50.9514 24.6718C51.0189 24.5089 51.0537 24.3342 51.0537 24.1579C51.0537 23.9815 51.0189 23.8069 50.9514 23.6439C50.8838 23.481 50.7848 23.333 50.6601 23.2083ZM33.05 38.921H29.5789V35.45L40.3158 24.7132L43.7868 28.1842L33.05 38.921ZM45.6842 26.2868L42.2132 22.8158L44.3421 20.6869L47.8131 24.1579L45.6842 26.2868ZM49.7105 34.8947V48.3158C49.7105 49.0277 49.4277 49.7104 48.9243 50.2138C48.4209 50.7172 47.7382 51 47.0263 51H20.1842C19.4723 51 18.7896 50.7172 18.2862 50.2138C17.7828 49.7104 17.5 49.0277 17.5 48.3158V21.4737C17.5 20.7618 17.7828 20.079 18.2862 19.5756C18.7896 19.0722 19.4723 18.7894 20.1842 18.7894H33.6053C33.9612 18.7894 34.3026 18.9308 34.5543 19.1825C34.806 19.4342 34.9474 19.7756 34.9474 20.1316C34.9474 20.4875 34.806 20.8289 34.5543 21.0806C34.3026 21.3323 33.9612 21.4737 33.6053 21.4737H20.1842V48.3158H47.0263V34.8947C47.0263 34.5388 47.1677 34.1974 47.4194 33.9457C47.6711 33.694 48.0125 33.5526 48.3684 33.5526C48.7244 33.5526 49.0657 33.694 49.3174 33.9457C49.5691 34.1974 49.7105 34.5388 49.7105 34.8947Z" fill="#777777"/>
</g>
<defs>
<filter id="filter0_d_707_299" x="0" y="0" width="69" height="72" filterUnits="userSpaceOnUse" color-interpolation-filters="sRGB">
<feFlood flood-opacity="0" result="BackgroundImageFix"/>
<feColorMatrix in="SourceAlpha" type="matrix" values="0 0 0 0 0 0 0 0 0 0 0 0 0 0 0 0 0 0 127 0" result="hardAlpha"/>
<feOffset dy="7"/>
<feComposite in2="hardAlpha" operator="out"/>
<feColorMatrix type="matrix" values="0 0 0 0 0.466667 0 0 0 0 0.466667 0 0 0 0 0.466667 0 0 0 1 0"/>
<feBlend mode="normal" in2="BackgroundImageFix" result="effect1_dropShadow_707_299"/>
<feBlend mode="normal" in="SourceGraphic" in2="effect1_dropShadow_707_299" result="shape"/>
</filter>
<clipPath id="clip0_707_299">
<rect width="34" height="34" fill="white" transform="translate(17.5 17)"/>
</clipPath>
</defs>
</svg>
