<svg width="69" height="69" viewBox="0 0 69 69" fill="none" xmlns="http://www.w3.org/2000/svg">
<g filter="url(#filter0_d_112_106)">
<ellipse cx="34.5" cy="31" rx="34.5" ry="31" fill="#3C4DFF"/>
</g>
<g clip-path="url(#clip0_112_106)">
<path d="M50.6601 20.2084L45.2916 14.8399C45.167 14.7152 45.019 14.6162 44.856 14.5486C44.6931 14.4811 44.5185 14.4463 44.3421 14.4463C44.1657 14.4463 43.9911 14.4811 43.8282 14.5486C43.6652 14.6162 43.5172 14.7152 43.3926 14.8399L27.2873 30.9452C27.1627 31.0699 27.0639 31.218 26.9966 31.3809C26.9292 31.5438 26.8946 31.7184 26.8947 31.8947V37.2632C26.8947 37.6191 27.0361 37.9605 27.2878 38.2122C27.5395 38.4639 27.8809 38.6053 28.2368 38.6053H33.6053C33.7816 38.6054 33.9562 38.5708 34.1191 38.5034C34.282 38.4361 34.4301 38.3373 34.5548 38.2127L50.6601 22.1074C50.7848 21.9828 50.8838 21.8348 50.9514 21.6718C51.0189 21.5089 51.0537 21.3343 51.0537 21.1579C51.0537 20.9815 51.0189 20.8069 50.9514 20.644C50.8838 20.481 50.7848 20.333 50.6601 20.2084ZM33.05 35.9211H29.5789V32.45L40.3158 21.7132L43.7868 25.1842L33.05 35.9211ZM45.6842 23.2868L42.2132 19.8158L44.3421 17.6869L47.8131 21.1579L45.6842 23.2868ZM49.7105 31.8947V45.3158C49.7105 46.0277 49.4277 46.7104 48.9243 47.2138C48.4209 47.7172 47.7382 48 47.0263 48H20.1842C19.4723 48 18.7896 47.7172 18.2862 47.2138C17.7828 46.7104 17.5 46.0277 17.5 45.3158V18.4737C17.5 17.7618 17.7828 17.0791 18.2862 16.5757C18.7896 16.0723 19.4723 15.7895 20.1842 15.7895H33.6053C33.9612 15.7895 34.3026 15.9309 34.5543 16.1826C34.806 16.4343 34.9474 16.7756 34.9474 17.1316C34.9474 17.4875 34.806 17.8289 34.5543 18.0806C34.3026 18.3323 33.9612 18.4737 33.6053 18.4737H20.1842V45.3158H47.0263V31.8947C47.0263 31.5388 47.1677 31.1974 47.4194 30.9457C47.6711 30.694 48.0125 30.5526 48.3684 30.5526C48.7244 30.5526 49.0657 30.694 49.3174 30.9457C49.5691 31.1974 49.7105 31.5388 49.7105 31.8947Z" fill="white"/>
</g>
<defs>
<filter id="filter0_d_112_106" x="0" y="0" width="69" height="69" filterUnits="userSpaceOnUse" color-interpolation-filters="sRGB">
<feFlood flood-opacity="0" result="BackgroundImageFix"/>
<feColorMatrix in="SourceAlpha" type="matrix" values="0 0 0 0 0 0 0 0 0 0 0 0 0 0 0 0 0 0 127 0" result="hardAlpha"/>
<feOffset dy="7"/>
<feComposite in2="hardAlpha" operator="out"/>
<feColorMatrix type="matrix" values="0 0 0 0 0.0015072 0 0 0 0 0.0707561 0 0 0 0 0.795833 0 0 0 1 0"/>
<feBlend mode="normal" in2="BackgroundImageFix" result="effect1_dropShadow_112_106"/>
<feBlend mode="normal" in="SourceGraphic" in2="effect1_dropShadow_112_106" result="shape"/>
</filter>
<clipPath id="clip0_112_106">
<rect width="34" height="34" fill="white" transform="translate(17.5 14)"/>
</clipPath>
</defs>
</svg>
