<svg width="69" height="72" viewBox="0 0 69 72" fill="none" xmlns="http://www.w3.org/2000/svg">
<g filter="url(#filter0_d_707_307)">
<ellipse cx="34.5" cy="32.5" rx="34.5" ry="32.5" fill="#A7A7A7"/>
</g>
<g clip-path="url(#clip0_707_307)">
<path d="M29.5397 23.4373C27.8964 23.5006 26.4108 24.0871 25.6165 24.8823C25.5287 24.97 25.4246 25.0395 25.31 25.087C25.1953 25.1344 25.0725 25.1588 24.9484 25.1587C24.8244 25.1587 24.7016 25.1342 24.587 25.0867C24.4724 25.0392 24.3683 24.9696 24.2806 24.8818C24.1929 24.7941 24.1234 24.6899 24.0759 24.5753C24.0285 24.4607 24.0041 24.3378 24.0042 24.2138C24.0042 24.0897 24.0287 23.9669 24.0762 23.8523C24.1237 23.7377 24.1933 23.6336 24.2811 23.5459C25.506 22.321 27.5006 21.6259 29.466 21.5494C31.4446 21.4729 33.6045 22.014 35.1175 23.527C35.2946 23.7042 35.3941 23.9446 35.394 24.1951C35.3939 24.4456 35.2943 24.6859 35.1171 24.8629C34.9399 25.04 34.6995 25.1395 34.449 25.1394C34.1985 25.1393 33.9583 25.0397 33.7812 24.8625C32.7517 23.8321 31.1707 23.3731 29.5397 23.4364" fill="#777777"/>
<path fill-rule="evenodd" clip-rule="evenodd" d="M39.1616 37.1958C41.0341 34.9828 42.0597 32.1766 42.0554 29.2777C42.0554 22.4966 36.5587 17 29.7777 17C22.9966 17 17.5 22.4966 17.5 29.2777C17.5 36.0587 22.9966 41.5554 29.7777 41.5554C32.7952 41.5554 35.5576 40.4674 37.6958 38.6616L37.3332 40.7469L44.4297 47.8434L48.3434 43.9297L41.2469 36.8332L39.1616 37.1958ZM29.7777 38.7221C34.9938 38.7221 39.2221 34.4938 39.2221 29.2777C39.2221 24.0616 34.9938 19.8333 29.7777 19.8333C24.5616 19.8333 20.3333 24.0616 20.3333 29.2777C20.3333 34.4938 24.5616 38.7221 29.7777 38.7221Z" fill="#777777"/>
<path d="M45.7651 49.1789L49.6789 45.2651L50.9595 46.5458C51.6801 47.2664 51.6801 48.4347 50.9595 49.1543L49.6543 50.4595C48.9337 51.1801 47.7655 51.1801 47.0458 50.4595L45.7651 49.1789Z" fill="#777777"/>
</g>
<defs>
<filter id="filter0_d_707_307" x="0" y="0" width="69" height="72" filterUnits="userSpaceOnUse" color-interpolation-filters="sRGB">
<feFlood flood-opacity="0" result="BackgroundImageFix"/>
<feColorMatrix in="SourceAlpha" type="matrix" values="0 0 0 0 0 0 0 0 0 0 0 0 0 0 0 0 0 0 127 0" result="hardAlpha"/>
<feOffset dy="7"/>
<feComposite in2="hardAlpha" operator="out"/>
<feColorMatrix type="matrix" values="0 0 0 0 0.466667 0 0 0 0 0.466667 0 0 0 0 0.466667 0 0 0 1 0"/>
<feBlend mode="normal" in2="BackgroundImageFix" result="effect1_dropShadow_707_307"/>
<feBlend mode="normal" in="SourceGraphic" in2="effect1_dropShadow_707_307" result="shape"/>
</filter>
<clipPath id="clip0_707_307">
<rect width="34" height="34" fill="white" transform="translate(17.5 17)"/>
</clipPath>
</defs>
</svg>
