<svg width="77" height="70" viewBox="0 0 77 70" fill="none" xmlns="http://www.w3.org/2000/svg">
<g filter="url(#filter0_d_112_121)">
<g filter="url(#filter1_d_112_121)">
<ellipse cx="38.5" cy="31" rx="34.5" ry="31" fill="#A7A7A7"/>
</g>
<g clip-path="url(#clip0_112_121)">
<path d="M33.5397 21.4373C31.8964 21.5006 30.4108 22.0871 29.6165 22.8823C29.5287 22.97 29.4246 23.0395 29.31 23.0869C29.1953 23.1344 29.0725 23.1588 28.9484 23.1587C28.8244 23.1587 28.7016 23.1342 28.587 23.0867C28.4724 23.0392 28.3683 22.9695 28.2806 22.8818C28.1929 22.7941 28.1234 22.6899 28.0759 22.5753C28.0285 22.4606 28.0041 22.3378 28.0042 22.2137C28.0042 22.0897 28.0287 21.9669 28.0762 21.8523C28.1237 21.7377 28.1933 21.6336 28.2811 21.5459C29.506 20.321 31.5006 19.6259 33.466 19.5494C35.4446 19.4729 37.6045 20.014 39.1175 21.527C39.2946 21.7042 39.3941 21.9445 39.394 22.1951C39.3939 22.4456 39.2943 22.6858 39.1171 22.8629C38.9399 23.04 38.6995 23.1394 38.449 23.1394C38.1985 23.1393 37.9583 23.0397 37.7812 22.8624C36.7517 21.8321 35.1707 21.3731 33.5397 21.4363" fill="#777777"/>
<path fill-rule="evenodd" clip-rule="evenodd" d="M43.1616 35.1958C45.0341 32.9828 46.0597 30.1766 46.0554 27.2777C46.0554 20.4966 40.5587 15 33.7777 15C26.9966 15 21.5 20.4966 21.5 27.2777C21.5 34.0587 26.9966 39.5554 33.7777 39.5554C36.7952 39.5554 39.5576 38.4674 41.6958 36.6616L41.3332 38.7469L48.4297 45.8434L52.3434 41.9297L45.2469 34.8332L43.1616 35.1958ZM33.7777 36.7221C38.9938 36.7221 43.2221 32.4938 43.2221 27.2777C43.2221 22.0616 38.9938 17.8333 33.7777 17.8333C28.5616 17.8333 24.3333 22.0616 24.3333 27.2777C24.3333 32.4938 28.5616 36.7221 33.7777 36.7221Z" fill="#777777"/>
<path d="M49.7651 47.1789L53.6789 43.2651L54.9595 44.5458C55.6801 45.2664 55.6801 46.4347 54.9595 47.1543L53.6543 48.4595C52.9337 49.1801 51.7655 49.1801 51.0458 48.4595L49.7651 47.1789Z" fill="#777777"/>
</g>
</g>
<defs>
<filter id="filter0_d_112_121" x="0" y="0" width="77" height="70" filterUnits="userSpaceOnUse" color-interpolation-filters="sRGB">
<feFlood flood-opacity="0" result="BackgroundImageFix"/>
<feColorMatrix in="SourceAlpha" type="matrix" values="0 0 0 0 0 0 0 0 0 0 0 0 0 0 0 0 0 0 127 0" result="hardAlpha"/>
<feOffset dy="4"/>
<feGaussianBlur stdDeviation="2"/>
<feComposite in2="hardAlpha" operator="out"/>
<feColorMatrix type="matrix" values="0 0 0 0 0 0 0 0 0 0 0 0 0 0 0 0 0 0 0.25 0"/>
<feBlend mode="normal" in2="BackgroundImageFix" result="effect1_dropShadow_112_121"/>
<feBlend mode="normal" in="SourceGraphic" in2="effect1_dropShadow_112_121" result="shape"/>
</filter>
<filter id="filter1_d_112_121" x="4" y="0" width="69" height="69" filterUnits="userSpaceOnUse" color-interpolation-filters="sRGB">
<feFlood flood-opacity="0" result="BackgroundImageFix"/>
<feColorMatrix in="SourceAlpha" type="matrix" values="0 0 0 0 0 0 0 0 0 0 0 0 0 0 0 0 0 0 127 0" result="hardAlpha"/>
<feOffset dy="7"/>
<feComposite in2="hardAlpha" operator="out"/>
<feColorMatrix type="matrix" values="0 0 0 0 0.466667 0 0 0 0 0.466667 0 0 0 0 0.466667 0 0 0 1 0"/>
<feBlend mode="normal" in2="BackgroundImageFix" result="effect1_dropShadow_112_121"/>
<feBlend mode="normal" in="SourceGraphic" in2="effect1_dropShadow_112_121" result="shape"/>
</filter>
<clipPath id="clip0_112_121">
<rect width="34" height="34" fill="white" transform="translate(21.5 15)"/>
</clipPath>
</defs>
</svg>
