<svg width="69" height="69" viewBox="0 0 69 69" fill="none" xmlns="http://www.w3.org/2000/svg">
<g filter="url(#filter0_d_241_326)">
<ellipse cx="34.5" cy="31" rx="34.5" ry="31" fill="#3C4DFF"/>
</g>
<g clip-path="url(#clip0_241_326)">
<path d="M29.0397 19.4373C27.3964 19.5006 25.9108 20.0871 25.1165 20.8823C25.0287 20.97 24.9246 21.0395 24.81 21.087C24.6953 21.1344 24.5725 21.1588 24.4484 21.1587C24.3244 21.1587 24.2016 21.1342 24.087 21.0867C23.9724 21.0392 23.8683 20.9696 23.7806 20.8818C23.6929 20.7941 23.6234 20.6899 23.5759 20.5753C23.5285 20.4607 23.5041 20.3378 23.5042 20.2138C23.5042 20.0897 23.5287 19.9669 23.5762 19.8523C23.6237 19.7377 23.6933 19.6336 23.7811 19.5459C25.006 18.321 27.0006 17.6259 28.966 17.5494C30.9446 17.4729 33.1045 18.014 34.6175 19.527C34.7946 19.7042 34.8941 19.9446 34.894 20.1951C34.8939 20.4456 34.7943 20.6859 34.6171 20.8629C34.4399 21.04 34.1995 21.1395 33.949 21.1394C33.6985 21.1393 33.4583 21.0397 33.2812 20.8625C32.2517 19.8321 30.6707 19.3731 29.0397 19.4364" fill="#F7F7F7"/>
<path fill-rule="evenodd" clip-rule="evenodd" d="M38.6616 33.1958C40.5341 30.9828 41.5597 28.1766 41.5554 25.2777C41.5554 18.4966 36.0587 13 29.2777 13C22.4966 13 17 18.4966 17 25.2777C17 32.0587 22.4966 37.5554 29.2777 37.5554C32.2952 37.5554 35.0576 36.4674 37.1958 34.6616L36.8332 36.7469L43.9297 43.8434L47.8434 39.9297L40.7469 32.8332L38.6616 33.1958ZM29.2777 34.7221C34.4938 34.7221 38.7221 30.4938 38.7221 25.2777C38.7221 20.0616 34.4938 15.8333 29.2777 15.8333C24.0616 15.8333 19.8333 20.0616 19.8333 25.2777C19.8333 30.4938 24.0616 34.7221 29.2777 34.7221Z" fill="#F7F7F7"/>
<path d="M45.2651 45.1789L49.1789 41.2651L50.4595 42.5458C51.1801 43.2664 51.1801 44.4347 50.4595 45.1543L49.1543 46.4595C48.4337 47.1801 47.2655 47.1801 46.5458 46.4595L45.2651 45.1789Z" fill="#F7F7F7"/>
</g>
<defs>
<filter id="filter0_d_241_326" x="0" y="0" width="69" height="69" filterUnits="userSpaceOnUse" color-interpolation-filters="sRGB">
<feFlood flood-opacity="0" result="BackgroundImageFix"/>
<feColorMatrix in="SourceAlpha" type="matrix" values="0 0 0 0 0 0 0 0 0 0 0 0 0 0 0 0 0 0 127 0" result="hardAlpha"/>
<feOffset dy="7"/>
<feComposite in2="hardAlpha" operator="out"/>
<feColorMatrix type="matrix" values="0 0 0 0 0.0015072 0 0 0 0 0.0707561 0 0 0 0 0.795833 0 0 0 1 0"/>
<feBlend mode="normal" in2="BackgroundImageFix" result="effect1_dropShadow_241_326"/>
<feBlend mode="normal" in="SourceGraphic" in2="effect1_dropShadow_241_326" result="shape"/>
</filter>
<clipPath id="clip0_241_326">
<rect width="34" height="34" fill="white" transform="translate(17 13)"/>
</clipPath>
</defs>
</svg>
