<svg width="40" height="42" viewBox="0 0 40 42" fill="none" xmlns="http://www.w3.org/2000/svg">
<path d="M7.96194 32.7437L13.4286 24.0008M17.4584 17.5528L22.9193 8.81373M17.466 24.0103L22.925 32.7418M26.9529 8.81563L32.4215 17.5661M9.75 35.9592C9.75 34.9523 9.35003 33.9867 8.63809 33.2748C7.92614 32.5628 6.96054 32.1629 5.9537 32.1629C4.94686 32.1629 3.98126 32.5628 3.26931 33.2748C2.55737 33.9867 2.15741 34.9523 2.15741 35.9592C2.15741 36.966 2.55737 37.9316 3.26931 38.6435C3.98126 39.3555 4.94686 39.7555 5.9537 39.7555C6.96054 39.7555 7.92614 39.3555 8.63809 38.6435C9.35003 37.9316 9.75 36.966 9.75 35.9592ZM28.7315 5.58878C28.7315 4.58194 28.3315 3.61633 27.6196 2.90439C26.9076 2.19245 25.942 1.79248 24.9352 1.79248C23.9283 1.79248 22.9627 2.19245 22.2508 2.90439C21.5388 3.61633 21.1389 4.58194 21.1389 5.58878C21.1389 6.59562 21.5388 7.56122 22.2508 8.27317C22.9627 8.98511 23.9283 9.38507 24.9352 9.38507C25.942 9.38507 26.9076 8.98511 27.6196 8.27317C28.3315 7.56122 28.7315 6.59562 28.7315 5.58878ZM28.7315 35.9592C28.7315 34.9523 28.3315 33.9867 27.6196 33.2748C26.9076 32.5628 25.942 32.1629 24.9352 32.1629C23.9283 32.1629 22.9627 32.5628 22.2508 33.2748C21.5388 33.9867 21.1389 34.9523 21.1389 35.9592C21.1389 36.966 21.5388 37.9316 22.2508 38.6435C22.9627 39.3555 23.9283 39.7555 24.9352 39.7555C25.942 39.7555 26.9076 39.3555 27.6196 38.6435C28.3315 37.9316 28.7315 36.966 28.7315 35.9592ZM19.2407 20.774C19.2407 19.7671 18.8408 18.8015 18.1288 18.0896C17.4169 17.3776 16.4513 16.9777 15.4444 16.9777C14.4376 16.9777 13.472 17.3776 12.7601 18.0896C12.0481 18.8015 11.6481 19.7671 11.6481 20.774C11.6481 21.7808 12.0481 22.7464 12.7601 23.4584C13.472 24.1703 14.4376 24.5703 15.4444 24.5703C16.4513 24.5703 17.4169 24.1703 18.1288 23.4584C18.8408 22.7464 19.2407 21.7808 19.2407 20.774ZM38.2222 20.774C38.2222 19.7671 37.8222 18.8015 37.1103 18.0896C36.3984 17.3776 35.4328 16.9777 34.4259 16.9777C33.4191 16.9777 32.4535 17.3776 31.7415 18.0896C31.0296 18.8015 30.6296 19.7671 30.6296 20.774C30.6296 21.7808 31.0296 22.7464 31.7415 23.4584C32.4535 24.1703 33.4191 24.5703 34.4259 24.5703C35.4328 24.5703 36.3984 24.1703 37.1103 23.4584C37.8222 22.7464 38.2222 21.7808 38.2222 20.774Z" stroke="#3C4DFF" stroke-width="3" stroke-linecap="round" stroke-linejoin="round"/>
</svg>
