<svg width="37" height="35" viewBox="0 0 37 35" fill="none" xmlns="http://www.w3.org/2000/svg">
<path d="M30.9203 23.1093C29.6859 23.1087 28.4922 23.5537 27.5565 24.3633L23.1369 20.9067C23.4916 20.19 23.6758 19.4004 23.6751 18.6C23.6745 18.3913 23.6619 18.1828 23.6372 17.9756L26.4352 17.039C27.0616 18.1331 28.0622 18.9608 29.2507 19.3681C30.4391 19.7754 31.7343 19.7344 32.8949 19.2528C34.0554 18.7711 35.0023 17.8817 35.559 16.7502C36.1157 15.6187 36.2443 14.3223 35.9208 13.1026C35.5972 11.8829 34.8437 10.823 33.8006 10.1204C32.7574 9.41784 31.4958 9.12052 30.2508 9.28385C29.0058 9.44717 27.8622 10.06 27.0333 11.0081C26.2044 11.9563 25.7466 13.1751 25.7452 14.4375C25.7458 14.6461 25.7585 14.8546 25.7831 15.0618L22.9851 15.9984C22.4377 15.0395 21.5998 14.2815 20.5938 13.8351C19.5877 13.3886 18.4661 13.277 17.3925 13.5165L15.9883 10.3426C17.0323 9.59409 17.7627 8.48259 18.038 7.2235C18.3133 5.96442 18.1139 4.6474 17.4784 3.5277C16.843 2.40799 15.8167 1.56534 14.5985 1.16304C13.3803 0.76074 12.057 0.827444 10.8849 1.35022C9.71284 1.873 8.77554 2.81463 8.25465 3.99262C7.73376 5.17061 7.66638 6.50107 8.06556 7.72616C8.46475 8.95125 9.30207 9.98373 10.4153 10.6235C11.5284 11.2633 12.8382 11.4648 14.0907 11.189L15.4949 14.3629C14.4457 15.1131 13.7133 16.2305 13.4414 17.4957C13.1695 18.761 13.3777 20.0827 14.0252 21.2015L9.18471 25.5375C8.15537 24.7627 6.87659 24.3998 5.59624 24.519C4.31589 24.6383 3.12519 25.2312 2.25496 26.183C1.38472 27.1347 0.896938 28.3773 0.886169 29.6701C0.875399 30.9628 1.34241 32.2135 2.19667 33.1798C3.05093 34.146 4.23158 34.7589 5.50976 34.8997C6.78794 35.0405 8.07259 34.6992 9.11469 33.9419C10.1568 33.1845 10.8821 32.0652 11.15 30.8008C11.4179 29.5364 11.2094 28.217 10.5647 27.0984L15.3949 22.7625C16.3351 23.4729 17.4886 23.8391 18.6641 23.8003C19.8397 23.7615 20.9668 23.3201 21.8587 22.5491L26.2782 26.0057C25.7795 27.0195 25.623 28.1689 25.8322 29.2801C26.0414 30.3913 26.605 31.4037 27.4376 32.1641C28.2703 32.9244 29.3267 33.3913 30.4469 33.4941C31.5671 33.5968 32.6901 33.3298 33.6459 32.7334C34.6016 32.1371 35.3381 31.2439 35.7438 30.1891C36.1495 29.1343 36.2024 27.9753 35.8943 26.8876C35.5863 25.7999 34.9342 24.8427 34.0367 24.161C33.1392 23.4792 32.0452 23.1101 30.9203 23.1093ZM30.9203 11.3156C31.5345 11.3156 32.1348 11.4987 32.6454 11.8417C33.1561 12.1847 33.5541 12.6723 33.7891 13.2428C34.0241 13.8132 34.0856 14.4409 33.9658 15.0465C33.846 15.6521 33.5502 16.2084 33.116 16.645C32.6817 17.0816 32.1284 17.3789 31.5261 17.4993C30.9238 17.6198 30.2995 17.558 29.7321 17.3217C29.1647 17.0854 28.6797 16.6853 28.3386 16.1719C27.9974 15.6585 27.8153 15.0549 27.8153 14.4375C27.8153 13.6095 28.1424 12.8154 28.7247 12.23C29.307 11.6445 30.0968 11.3156 30.9203 11.3156ZM9.87473 6.11246C9.87473 5.49501 10.0568 4.89142 10.398 4.37804C10.7392 3.86465 11.2242 3.46451 11.7916 3.22822C12.3589 2.99193 12.9833 2.93011 13.5856 3.05057C14.1879 3.17102 14.7412 3.46836 15.1754 3.90496C15.6097 4.34156 15.9054 4.89782 16.0252 5.50341C16.1451 6.10899 16.0836 6.7367 15.8485 7.30715C15.6135 7.87759 15.2155 8.36516 14.7049 8.7082C14.1943 9.05124 13.5939 9.23433 12.9798 9.23433C12.1563 9.23433 11.3665 8.90542 10.7842 8.31995C10.2019 7.73449 9.87473 6.94043 9.87473 6.11246ZM6.07962 32.8218C5.46549 32.8218 4.86515 32.6387 4.35452 32.2957C3.84389 31.9527 3.4459 31.4651 3.21088 30.8946C2.97587 30.3242 2.91438 29.6965 3.03419 29.0909C3.154 28.4853 3.44973 27.9291 3.88398 27.4925C4.31824 27.0559 4.87151 26.7585 5.47384 26.6381C6.07617 26.5176 6.7005 26.5794 7.26788 26.8157C7.83526 27.052 8.32021 27.4521 8.6614 27.9655C9.0026 28.4789 9.18471 29.0825 9.18471 29.7C9.18471 30.5279 8.85756 31.322 8.27525 31.9075C7.69293 32.4929 6.90314 32.8218 6.07962 32.8218ZM18.5 21.7218C17.8858 21.7218 17.2855 21.5387 16.7749 21.1957C16.2643 20.8527 15.8663 20.3651 15.6312 19.7946C15.3962 19.2242 15.3347 18.5965 15.4546 17.9909C15.5744 17.3853 15.8701 16.8291 16.3043 16.3925C16.7386 15.9559 17.2919 15.6585 17.8942 15.5381C18.4965 15.4176 19.1209 15.4794 19.6882 15.7157C20.2556 15.952 20.7406 16.3521 21.0818 16.8655C21.423 17.3789 21.6051 17.9825 21.6051 18.6C21.6051 19.4279 21.2779 20.222 20.6956 20.8075C20.1133 21.3929 19.3235 21.7218 18.5 21.7218ZM30.9203 31.4343C30.3062 31.4343 29.7059 31.2512 29.1952 30.9082C28.6846 30.5652 28.2866 30.0776 28.0516 29.5071C27.8166 28.9367 27.7551 28.309 27.8749 27.7034C27.9947 27.0978 28.2905 26.5416 28.7247 26.105C29.159 25.6684 29.7122 25.371 30.3146 25.2506C30.9169 25.1301 31.5412 25.1919 32.1086 25.4282C32.676 25.6645 33.1609 26.0646 33.5021 26.578C33.8433 27.0914 34.0254 27.695 34.0254 28.3125C34.0254 29.1404 33.6983 29.9345 33.116 30.52C32.5337 31.1054 31.7439 31.4343 30.9203 31.4343Z" fill="#3C4DFF"/>
</svg>
