<svg xmlns="http://www.w3.org/2000/svg" width="29" height="39" viewBox="0 0 29 39" fill="none">
  <g clip-path="url(#clip0_130_436)">
    <path d="M1.45 0C1.06544 0 0.696623 0.228273 0.424695 0.634602C0.152767 1.04093 0 1.59203 0 2.16667V36.8333C0 37.408 0.152767 37.9591 0.424695 38.3654C0.696623 38.7717 1.06544 39 1.45 39H27.55C27.9346 39 28.3034 38.7717 28.5753 38.3654C28.8472 37.9591 29 37.408 29 36.8333V2.16667C29 1.59203 28.8472 1.04093 28.5753 0.634602C28.3034 0.228273 27.9346 0 27.55 0H1.45ZM8.7 4.33333V10.8333H2.9V4.33333H8.7ZM2.9 23.8333V15.1667H8.7V23.8333H2.9ZM2.9 28.1667H8.7V34.6667H2.9V28.1667ZM11.6 28.1667H26.1V34.6667H11.6V28.1667ZM26.1 23.8333H11.6V15.1667H26.1V23.8333ZM26.1 4.33333V10.8333H11.6V4.33333H26.1Z" fill="#3C4DFF"/>
  </g>
  <defs>
    <clipPath id="clip0_130_436">
      <rect width="29" height="39" fill="white"/>
    </clipPath>
  </defs>
</svg>