<svg width="42" height="50" viewBox="0 0 42 50" fill="none" xmlns="http://www.w3.org/2000/svg">
<rect width="42" height="50" fill="#1E1E1E"/>
<g id="Badges Page" clip-path="url(#clip0_0_1)">
<rect width="1440" height="1024" transform="translate(-307 -266)" fill="white"/>
<g id="Group 28" filter="url(#filter0_d_0_1)">
<g id="Frame 90" filter="url(#filter1_d_0_1)">
<rect x="-59" y="-78" width="160" height="149" rx="12" fill="#F7F7F7"/>
<rect x="-58" y="-77" width="158" height="147" rx="11" stroke="#3C4DFF" stroke-width="2"/>
</g>
<g id="Frame 91">
<path id="Vector" d="M2.4648 0C1.9186 0 1.39476 0.28778 1.00854 0.800032C0.622313 1.31228 0.405334 2.00705 0.405334 2.73148V46.4352C0.405334 47.1596 0.622313 47.8544 1.00854 48.3666C1.39476 48.8789 1.9186 49.1667 2.4648 49.1667H39.5352C40.0814 49.1667 40.6052 48.8789 40.9915 48.3666C41.3777 47.8544 41.5947 47.1596 41.5947 46.4352V2.73148C41.5947 2.00705 41.3777 1.31228 40.9915 0.800032C40.6052 0.28778 40.0814 0 39.5352 0H2.4648ZM12.7621 5.46296V13.6574H4.52427V5.46296H12.7621ZM4.52427 30.0463V19.1204H12.7621V30.0463H4.52427ZM4.52427 35.5093H12.7621V43.7037H4.52427V35.5093ZM16.8811 35.5093H37.4757V43.7037H16.8811V35.5093ZM37.4757 30.0463H16.8811V19.1204H37.4757V30.0463ZM37.4757 5.46296V13.6574H16.8811V5.46296H37.4757Z" fill="#3C4DFF"/>
</g>
</g>
</g>
<defs>
<filter id="filter0_d_0_1" x="-63" y="-78" width="168" height="157" filterUnits="userSpaceOnUse" color-interpolation-filters="sRGB">
<feFlood flood-opacity="0" result="BackgroundImageFix"/>
<feColorMatrix in="SourceAlpha" type="matrix" values="0 0 0 0 0 0 0 0 0 0 0 0 0 0 0 0 0 0 127 0" result="hardAlpha"/>
<feOffset dy="4"/>
<feGaussianBlur stdDeviation="2"/>
<feComposite in2="hardAlpha" operator="out"/>
<feColorMatrix type="matrix" values="0 0 0 0 0 0 0 0 0 0 0 0 0 0 0 0 0 0 0.25 0"/>
<feBlend mode="normal" in2="BackgroundImageFix" result="effect1_dropShadow_0_1"/>
<feBlend mode="normal" in="SourceGraphic" in2="effect1_dropShadow_0_1" result="shape"/>
</filter>
<filter id="filter1_d_0_1" x="-63" y="-78" width="168" height="157" filterUnits="userSpaceOnUse" color-interpolation-filters="sRGB">
<feFlood flood-opacity="0" result="BackgroundImageFix"/>
<feColorMatrix in="SourceAlpha" type="matrix" values="0 0 0 0 0 0 0 0 0 0 0 0 0 0 0 0 0 0 127 0" result="hardAlpha"/>
<feOffset dy="4"/>
<feGaussianBlur stdDeviation="2"/>
<feComposite in2="hardAlpha" operator="out"/>
<feColorMatrix type="matrix" values="0 0 0 0 0 0 0 0 0 0 0 0 0 0 0 0 0 0 0.25 0"/>
<feBlend mode="normal" in2="BackgroundImageFix" result="effect1_dropShadow_0_1"/>
<feBlend mode="normal" in="SourceGraphic" in2="effect1_dropShadow_0_1" result="shape"/>
</filter>
<clipPath id="clip0_0_1">
<rect width="1440" height="1024" fill="white" transform="translate(-307 -266)"/>
</clipPath>
</defs>
</svg>
