<svg width="52" height="14" viewBox="0 0 52 14" fill="none" xmlns="http://www.w3.org/2000/svg">
<path d="M12.3951 7H19.9665" stroke="#3C4DFF" stroke-width="2" stroke-linecap="round" stroke-linejoin="round"/>
<path d="M31.3236 7H38.8951" stroke="#3C4DFF" stroke-width="2" stroke-linecap="round" stroke-linejoin="round"/>
<path d="M6.71649 12.6787C10.3508 12.6787 12.3951 10.6344 12.3951 7.0001C12.3951 3.36582 10.3508 1.32153 6.71649 1.32153C3.0822 1.32153 1.03792 3.36582 1.03792 7.0001C1.03792 10.6344 3.0822 12.6787 6.71649 12.6787Z" stroke="#3C4DFF" stroke-width="2" stroke-linecap="round" stroke-linejoin="round"/>
<path d="M25.6451 12.6787C29.2793 12.6787 31.3236 10.6344 31.3236 7.0001C31.3236 3.36582 29.2793 1.32153 25.6451 1.32153C22.0108 1.32153 19.9665 3.36582 19.9665 7.0001C19.9665 10.6344 22.0108 12.6787 25.6451 12.6787Z" stroke="#3C4DFF" stroke-width="2" stroke-linecap="round" stroke-linejoin="round"/>
<path d="M44.5736 12.6787C48.2079 12.6787 50.2522 10.6344 50.2522 7.0001C50.2522 3.36582 48.2079 1.32153 44.5736 1.32153C40.9394 1.32153 38.8951 3.36582 38.8951 7.0001C38.8951 10.6344 40.9394 12.6787 44.5736 12.6787Z" stroke="#3C4DFF" stroke-width="2" stroke-linecap="round" stroke-linejoin="round"/>
</svg>
