<svg width="37" height="37" viewBox="0 0 37 37" fill="none" xmlns="http://www.w3.org/2000/svg">
<g clip-path="url(#clip0_686_303)">
<path d="M2.64286 34.3571H7.92857V37H2.64286C1.94193 37 1.26971 36.7216 0.774075 36.2259C0.278443 35.7303 0 35.0581 0 34.3571V29.0714H2.64286V34.3571ZM11.8929 14.5357V25.1071H5.28571C4.58478 25.1071 3.91256 24.8287 3.41693 24.3331C2.9213 23.8374 2.64286 23.1652 2.64286 22.4643V19.8214C2.64286 19.1205 2.9213 18.4483 3.41693 17.9526C3.91256 17.457 4.58478 17.1786 5.28571 17.1786H9.25V14.5357H3.96429V11.8929H9.25C10.7075 11.8929 11.8929 13.0782 11.8929 14.5357ZM9.25 19.8214H5.28571V22.4643H9.25V19.8214ZM2.64286 2.64286H7.92857V0H2.64286C1.94193 0 1.26971 0.278443 0.774075 0.774075C0.278443 1.26971 0 1.94193 0 2.64286V7.92857H2.64286V2.64286ZM34.3571 0H29.0714V2.64286H34.3571V7.92857H37V2.64286C37 1.94193 36.7216 1.26971 36.2259 0.774075C35.7303 0.278443 35.0581 0 34.3571 0ZM34.3571 34.3571H29.0714V37H34.3571C35.0581 37 35.7303 36.7216 36.2259 36.2259C36.7216 35.7303 37 35.0581 37 34.3571V29.0714H34.3571V34.3571ZM34.3571 25.1071V22.4643H29.0714V14.5357H34.3571V11.8929H29.0714C27.6152 11.8929 26.4286 13.0782 26.4286 14.5357V22.4643C26.4286 23.9218 27.6152 25.1071 29.0714 25.1071H34.3571ZM23.7857 14.5357V22.4643C23.7857 23.9218 22.6004 25.1071 21.1429 25.1071H14.5357V7.92857H17.1786V11.8929H21.1429C22.6004 11.8929 23.7857 13.0782 23.7857 14.5357ZM21.1429 14.5357H17.1786V22.4643H21.1429V14.5357Z" fill="#3C4DFF"/>
</g>
<defs>
<clipPath id="clip0_686_303">
<rect width="37" height="37" fill="white"/>
</clipPath>
</defs>
</svg>
